<?xml version="1.0" encoding="utf-8"?>
<!-- Generator: Adobe Illustrator 20.1.0, SVG Export Plug-In . SVG Version: 6.00 Build 0)  -->
<svg version="1.1" id="Layer_1" xmlns="http://www.w3.org/2000/svg" xmlns:xlink="http://www.w3.org/1999/xlink" x="0px" y="0px"
	 viewBox="0 0 445 107" style="enable-background:new 0 0 445 107;" xml:space="preserve">
<style type="text/css">
	.st0{fill-rule:evenodd;clip-rule:evenodd;fill:#FFFFFF;}
	.st1{fill-rule:evenodd;clip-rule:evenodd;fill:#009BD8;}
</style>
<g>
	<polygon class="st0" points="128.2,46.3 136.2,46.3 143,69.7 150.6,46.2 157.3,46.2 164.9,69.7 171.9,46.3 179.7,46.3 168.5,80.7 
		161.5,80.7 153.9,57.3 146.2,80.7 139.2,80.7 	"/>
	<path class="st0" d="M208.9,61c-0.1-1.2-0.4-2.4-0.8-3.5c-0.4-1.1-1-2-1.7-2.8c-0.7-0.8-1.6-1.4-2.6-1.9c-1-0.5-2.2-0.7-3.5-0.7
		c-2.4,0-4.4,0.8-6,2.5c-1.6,1.7-2.5,3.8-2.9,6.5H208.9L208.9,61z M201.2,81.2c-2.5,0-4.7-0.4-6.9-1.3c-2.1-0.9-4-2.1-5.6-3.6
		c-1.6-1.6-2.8-3.4-3.7-5.6c-0.9-2.2-1.4-4.6-1.4-7.2v-0.1c0-2.5,0.4-4.8,1.2-6.9c0.8-2.2,2-4,3.5-5.7c1.5-1.6,3.2-2.9,5.3-3.8
		c2-0.9,4.3-1.4,6.7-1.4c2.7,0,5.1,0.5,7.1,1.5c2,1,3.7,2.3,5.1,4c1.4,1.7,2.4,3.6,3.1,5.8c0.7,2.2,1,4.6,1,7c0,0.3,0,0.7,0,1.1
		c0,0.4-0.1,0.7-0.1,1.1h-25.1c0.4,2.8,1.5,4.9,3.3,6.4c1.8,1.5,4,2.2,6.5,2.2c1.9,0,3.6-0.3,5-1c1.4-0.7,2.8-1.7,4.2-3l4.6,4.1
		c-1.6,1.9-3.6,3.5-5.8,4.7C207,80.6,204.3,81.2,201.2,81.2z"/>
	<path class="st0" d="M235.2,81c-2.5,0-4.9-0.4-7.5-1.3c-2.5-0.9-4.9-2.2-7-3.9l3.5-5.3c1.9,1.4,3.7,2.4,5.7,3.1
		c1.9,0.7,3.8,1.1,5.5,1.1c1.7,0,3-0.3,3.9-1c0.9-0.7,1.4-1.6,1.4-2.7V71c0-0.6-0.2-1.2-0.6-1.7c-0.4-0.5-1-0.9-1.7-1.2
		c-0.7-0.3-1.5-0.7-2.5-1c-0.9-0.3-1.9-0.6-2.9-0.9c-1.2-0.3-2.5-0.8-3.8-1.2c-1.3-0.5-2.4-1.1-3.4-1.8c-1-0.7-1.8-1.7-2.5-2.8
		c-0.6-1.1-1-2.5-1-4.1v-0.1c0-1.6,0.3-3,0.9-4.3c0.6-1.3,1.5-2.4,2.6-3.3c1.1-0.9,2.4-1.6,3.9-2.1c1.5-0.5,3.1-0.7,4.7-0.7
		c2.2,0,4.3,0.3,6.5,1c2.2,0.7,4.2,1.7,6,2.9l-3.1,5.6c-1.6-1-3.3-1.8-5-2.4c-1.7-0.6-3.2-0.9-4.7-0.9c-1.5,0-2.7,0.3-3.5,1
		c-0.8,0.6-1.3,1.5-1.3,2.4v0.1c0,0.6,0.2,1.1,0.6,1.6c0.4,0.5,1,0.9,1.7,1.2c0.7,0.4,1.5,0.7,2.5,1c0.9,0.3,1.9,0.6,2.9,0.9
		c1.2,0.4,2.5,0.8,3.7,1.4c1.2,0.5,2.4,1.2,3.4,1.9c1,0.7,1.8,1.7,2.5,2.7c0.6,1.1,1,2.4,1,3.9v0.1c0,1.8-0.3,3.4-1,4.7
		c-0.6,1.3-1.5,2.4-2.7,3.3c-1.1,0.9-2.5,1.5-4,2C238.6,80.8,236.9,81,235.2,81z"/>
	<path class="st0" d="M266.2,81c-1.4,0-2.7-0.2-4-0.5c-1.2-0.3-2.3-0.9-3.2-1.7c-0.9-0.8-1.6-1.8-2-3.1c-0.5-1.3-0.7-2.9-0.7-4.7V53
		H252v-6.7h4.3v-9.4h7.9v9.4h9.2V53h-9.2v16.7c0,1.5,0.4,2.6,1.1,3.3c0.7,0.7,1.8,1,3.1,1c1.7,0,3.3-0.4,4.8-1.2v6.4
		c-1,0.6-2,1-3.2,1.3C268.9,80.8,267.6,81,266.2,81z"/>
	<path class="st1" d="M295.8,81.2c-2.5,0-4.7-0.5-6.8-1.4c-2.1-0.9-3.9-2.2-5.4-3.7c-1.5-1.6-2.7-3.4-3.6-5.5
		c-0.9-2.1-1.3-4.3-1.3-6.7v-0.1c0-2.4,0.4-4.6,1.3-6.7c0.9-2.1,2.1-4,3.6-5.6c1.5-1.6,3.3-2.9,5.4-3.8c2.1-0.9,4.4-1.4,6.8-1.4
		c1.6,0,3,0.2,4.3,0.5c1.3,0.3,2.5,0.7,3.6,1.3c1.1,0.5,2.1,1.2,3,1.9c0.9,0.7,1.7,1.5,2.5,2.3l-3.3,3.5c-1.3-1.4-2.8-2.6-4.4-3.6
		c-1.6-1-3.5-1.5-5.8-1.5c-1.7,0-3.3,0.3-4.7,1c-1.5,0.7-2.7,1.6-3.8,2.7c-1.1,1.2-1.9,2.5-2.5,4.1c-0.6,1.6-0.9,3.3-0.9,5.1v0.1
		c0,1.8,0.3,3.5,0.9,5.1c0.6,1.6,1.5,3,2.6,4.1c1.1,1.2,2.4,2.1,3.9,2.8c1.5,0.7,3.1,1,4.9,1c2.2,0,4.1-0.5,5.7-1.4
		c1.7-0.9,3.2-2.1,4.5-3.6l3.2,3c-1.7,1.9-3.6,3.4-5.7,4.7C301.5,80.6,298.9,81.2,295.8,81.2L295.8,81.2z M316.5,47h5v8.7
		c0.6-1.4,1.4-2.6,2.3-3.8c0.9-1.2,1.9-2.2,3.1-3c1.2-0.8,2.4-1.5,3.8-1.9c1.4-0.4,2.9-0.6,4.5-0.6v5.4h-0.4c-1.8,0-3.5,0.3-5.1,1
		c-1.6,0.6-3,1.6-4.2,2.9c-1.2,1.3-2.2,2.9-2.8,4.8c-0.7,1.9-1,4.1-1,6.6v13.3h-5V47L316.5,47z M366,61.7c-0.1-1.5-0.5-2.9-1-4.3
		c-0.5-1.3-1.2-2.5-2.1-3.6c-0.9-1-2-1.8-3.2-2.4c-1.3-0.6-2.7-0.9-4.4-0.9c-1.4,0-2.8,0.3-4,0.8c-1.2,0.5-2.3,1.3-3.3,2.3
		c-0.9,1-1.7,2.2-2.4,3.6c-0.6,1.4-1,2.9-1.2,4.4H366L366,61.7z M344.5,65.7c0.2,1.8,0.6,3.3,1.3,4.7c0.7,1.4,1.6,2.5,2.6,3.5
		c1.1,0.9,2.3,1.7,3.6,2.2c1.3,0.5,2.7,0.7,4.2,0.7c2.3,0,4.3-0.4,6-1.3c1.7-0.9,3.2-2,4.6-3.4l3.1,2.8c-1.7,1.9-3.6,3.4-5.7,4.6
		c-2.2,1.1-4.8,1.7-8,1.7c-2.3,0-4.4-0.4-6.5-1.3c-2-0.8-3.8-2-5.3-3.6c-1.5-1.5-2.7-3.4-3.6-5.5c-0.9-2.2-1.3-4.5-1.3-7.1
		c0-2.4,0.4-4.7,1.2-6.8c0.8-2.1,1.9-4,3.3-5.6c1.4-1.6,3.1-2.8,5.1-3.7c2-0.9,4.1-1.4,6.4-1.4c2.5,0,4.7,0.5,6.6,1.4
		c1.9,0.9,3.6,2.2,4.9,3.8c1.3,1.6,2.3,3.5,3,5.6c0.7,2.2,1,4.5,1,6.9c0,0.2,0,0.5,0,0.7c0,0.3,0,0.6-0.1,1H344.5L344.5,65.7z
		 M403.2,61.7c-0.1-1.5-0.5-2.9-1-4.3c-0.5-1.3-1.2-2.5-2.1-3.6c-0.9-1-2-1.8-3.2-2.4c-1.3-0.6-2.7-0.9-4.4-0.9
		c-1.4,0-2.8,0.3-4,0.8c-1.2,0.5-2.3,1.3-3.3,2.3c-0.9,1-1.7,2.2-2.4,3.6c-0.6,1.4-1,2.9-1.2,4.4H403.2L403.2,61.7z M381.7,65.7
		c0.2,1.8,0.6,3.3,1.3,4.7c0.7,1.4,1.6,2.5,2.6,3.5c1.1,0.9,2.3,1.7,3.6,2.2c1.3,0.5,2.7,0.7,4.2,0.7c2.3,0,4.3-0.4,6-1.3
		c1.7-0.9,3.2-2,4.6-3.4l3.1,2.8c-1.7,1.9-3.6,3.4-5.7,4.6c-2.2,1.1-4.8,1.7-8,1.7c-2.3,0-4.4-0.4-6.5-1.3c-2-0.8-3.8-2-5.3-3.6
		c-1.5-1.5-2.7-3.4-3.6-5.5c-0.9-2.2-1.3-4.5-1.3-7.1c0-2.4,0.4-4.7,1.2-6.8c0.8-2.1,1.9-4,3.3-5.6c1.4-1.6,3.1-2.8,5.1-3.7
		c2-0.9,4.1-1.4,6.4-1.4c2.5,0,4.7,0.5,6.6,1.4c1.9,0.9,3.6,2.2,4.9,3.8c1.3,1.6,2.3,3.5,3,5.6c0.7,2.2,1,4.5,1,6.9
		c0,0.2,0,0.5,0,0.7c0,0.3,0,0.6-0.1,1H381.7L381.7,65.7z M415.8,33.2h5v32.6l18-18.8h6.2l-14,14.3l14.5,19.1h-5.9l-12-15.6
		l-6.8,6.8v8.7h-5V33.2z"/>
	<path class="st0" d="M44.9,56.7L33.5,31.4c-1.2-2.7-4.4-3.9-7.1-2.7c-2.7,1.2-3.9,4.4-2.7,7.1L40,72.4c0.9,1.9,2.7,3.2,4.8,3.2
		c2.1,0,4-1.2,4.9-3l7.5-15.4l5-10.3l7,15.2l0.3,0.7c0.5,1.2,1.4,2.1,2.6,2.7c0.7,0.3,1.4,0.5,2.2,0.5l0.4,0l0.2,0l0.2,0l0.4-0.1
		l0.3-0.1l0.3-0.1l0.5-0.2l0.2-0.1l0.2-0.1l0.9-0.5l0.1-0.1c0.6-0.5,1-1.1,1.4-1.8l7.3-15.1l7.1-14.6l0.2-0.5l0.8,1.8
		c2.6,5.9,3.9,12.2,3.8,18.6c-0.4,24.4-20.4,43.8-44.8,43.5l-1.1,0c-2.6-0.1-5.2-0.4-7.6-1C23.9,90.7,7.7,71.9,7.7,48.7
		c0-25.5,19.9-46.4,45.1-47.9l0-0.1C23.8,1.2,0.5,24.8,0.5,53.8c0,23.7,15.6,43.8,37,50.6l0.2,0.1c0,0,0,0,0,0c0,0,0,0,0,0
		c0,0,0,0,0,0c4.7,1.5,9.6,2.6,14.8,2.7l1.1,0c30.3,0.4,55.3-23.8,55.7-54.1c0.1-8.9-1.9-17.5-5.8-25.3c-1.3-2.7-2.9-5.3-4.7-7.7
		c-1-1.3-2.6-3.9-4.3-4.2c-1.1-0.2-2.3,0-3.3,0.4c-1.1,0.5-2,1.4-2.6,2.5l-14.1,29L71.5,41l-4.1-8.9l-0.2-0.5l-0.1-0.2L67,31.2
		c-0.5-0.9-1.3-1.6-2.2-2c-0.7-0.3-1.4-0.5-2.2-0.5c-0.6,0-1.3,0.1-1.9,0.3l-0.8,0.3l-0.1,0c-1,0.5-1.8,1.4-2.3,2.4L45.1,57.3
		l0.1,0.3C45.1,57.3,45,57,44.9,56.7L44.9,56.7z M99.2,26.5c0.3-0.1,0.7-0.2,1-0.2C99.9,26.3,99.5,26.3,99.2,26.5z"/>
</g>
</svg>
