<?xml version="1.0" encoding="utf-8"?>
<!-- Generator: Adobe Illustrator 17.0.0, SVG Export Plug-In . SVG Version: 6.00 Build 0)  -->
<!DOCTYPE svg PUBLIC "-//W3C//DTD SVG 1.0//EN" "http://www.w3.org/TR/2001/REC-SVG-20010904/DTD/svg10.dtd">
<svg version="1.0" xmlns="http://www.w3.org/2000/svg" xmlns:xlink="http://www.w3.org/1999/xlink" x="0px" y="0px"
	 width="258.955px" height="257.836px" viewBox="0 0 258.955 257.836" enable-background="new 0 0 258.955 257.836"
	 xml:space="preserve">
<g id="Layer_1">
	<g>
		<path fill="#2B3990" d="M126.778,15.474L126.778,15.474L126.778,15.474L126.778,15.474L126.778,15.474L126.778,15.474h-0.002l0,0
			l0,0l0,0l0,0l0,0v0.006l0,0l0,0h0.002l0,0l0,0C126.778,15.48,126.778,15.48,126.778,15.474L126.778,15.474z M126.778,15.48
			c0,0,0,0,0-0.006h-0.002l0,0h0.002l0,0l0,0l0,0l0,0l0,0C126.778,15.48,126.778,15.48,126.778,15.48z M126.778,15.474
			L126.778,15.474L126.778,15.474L126.778,15.474L126.778,15.474L126.778,15.474L126.778,15.474z M126.778,15.48c0,0,0,0,0-0.006
			l0,0l0,0C126.778,15.48,126.778,15.48,126.778,15.48z M126.778,15.474L126.778,15.474L126.778,15.474L126.778,15.474
			L126.778,15.474z"/>
		<g>
			<path fill="#2B3990" d="M19.113,149.376h1.271c-0.701-3.6-1.243-7.24-1.582-10.927c0.506,1.404,1.124,2.811,1.846,4.187
				c-0.053,2.246-0.001,4.496,0.102,6.74h1.218c-0.07-1.531-0.113-3.063-0.111-4.596c0.947,1.55,2.034,3.083,3.25,4.596H26.7
				c-1.93-2.295-3.54-4.637-4.813-7.017c0.214-7.95,1.405-15.908,3.533-23.72c1.8,3.064,4.153,6.046,7.054,8.952
				c0.822,0.823,1.697,1.631,2.59,2.424c-0.165,0.648-0.341,1.304-0.492,1.95c-1.401,5.901-2.262,11.716-2.619,17.411h1.224
				c0.359-5.603,1.212-11.32,2.592-17.122c0.105-0.439,0.228-0.883,0.334-1.313c4.047,3.423,8.777,6.582,14.072,9.44
				c0.245,0.427,0.541,0.865,0.84,1.197c0.437,0.489,0.733,1.276,1.291,1.74c-0.365,2.028-0.689,4.048-0.971,6.059h1.245
				c0.241-1.7,0.507-3.406,0.81-5.118c0.468,0.47,0.911,0.989,1.084,1.285c0.29,0.488,0.466,0.308,1.32,0.231
				c0,0,0.717,1.955,1.368,3.603h4.637c0.013-0.03,0.018-0.054,0.032-0.085c0.333-0.771,0.48-2.045,0.48-2.045
				c0.43-0.65-0.106-0.859,0.268-1.177c3.005,1.18,6.122,2.29,9.352,3.307h4.583c-0.068-0.019-0.139-0.035-0.207-0.055
				c0.465-2.94,0.997-5.889,1.575-8.848c0.161,0.045,0.328,0.078,0.493,0.106c0,0-0.06-0.28-0.39-0.657
				c0.271-1.365,0.522-2.736,0.819-4.097c7.398,2.061,15.32,3.678,23.613,4.785c-0.208,2.038-0.407,4.073-0.597,6.105
				c-0.078,0.841-0.157,1.738-0.236,2.66h1.021c0.248-2.871,0.513-5.746,0.816-8.626c8.246,1.064,16.85,1.628,25.65,1.653v6.972
				h1.233v-6.972c8.801-0.026,17.394-0.589,25.639-1.653c0.296,2.878,0.56,5.754,0.809,8.626h1.022
				c-0.079-0.921-0.158-1.818-0.237-2.66c-0.186-2.032-0.386-4.061-0.596-6.105c7.936-1.06,15.519-2.593,22.637-4.53
				c-0.102,0.759-0.267,1.83-0.579,3.404c0.683,0.479,1.359,1.947,2.349,4.354c-0.311,1.767-0.407,3.609-0.02,5.249
				c-0.091,0.093-0.169,0.192-0.252,0.288h59.187c1.157-6.113,1.822-12.362,1.97-18.695c0.066-0.783,0.103-1.576,0.103-2.375
				c0-0.073-0.017-0.143-0.037-0.212v-0.05c0-6.667-0.614-13.231-1.741-19.672c0.079-0.138,0.105-0.308,0.056-0.47
				c-0.096-0.331-0.207-0.639-0.305-0.971c-0.588-3.101-1.313-6.165-2.151-9.199c-0.026-0.13-0.05-0.275-0.079-0.406
				c-0.014-0.089-0.051-0.164-0.099-0.232c-3.221-11.316-8.186-22.047-14.806-31.86c-0.156-0.27-0.314-0.538-0.482-0.81
				c-0.062-0.072-0.136-0.142-0.215-0.186c-3.869-5.593-8.251-10.9-13.161-15.812c-9.04-9.034-19.346-16.328-30.514-21.748
				c-0.069-0.088-0.151-0.158-0.262-0.201c-0.143-0.05-0.273-0.095-0.414-0.142c-9.147-4.364-18.873-7.438-28.951-9.194
				c-0.059-0.014-0.123-0.018-0.184-0.027c-1.123-0.191-2.24-0.384-3.376-0.543c-1.445-0.214-2.909-0.387-4.392-0.545
				c-0.394-0.037-0.786-0.062-1.18-0.1c-1.314-0.118-2.631-0.218-3.966-0.288c-0.45-0.033-0.892-0.049-1.342-0.073
				c-1.668-0.072-3.344-0.117-5.042-0.117c-0.975,0-1.943,0.008-2.911,0.028c-0.413,0.011-0.816,0.032-1.231,0.05
				c-0.551,0.019-1.108,0.039-1.665,0.063c-0.043,0.006-0.105,0.006-0.159,0.006c-14.891,0.789-29.02,4.48-41.837,10.513
				c-0.358,0.126-0.694,0.239-1.065,0.37c-0.152,0.056-0.276,0.171-0.34,0.303c-17.518,8.544-32.496,21.509-43.496,37.426
				c-0.115,0.046-0.218,0.113-0.291,0.218c-0.415,0.654-0.81,1.305-1.174,1.957c-7.913,12.041-13.579,25.681-16.397,40.323
				c-0.122,0.4-0.261,0.79-0.372,1.197c-0.055,0.162-0.023,0.339,0.052,0.476c-1.129,6.384-1.715,12.951-1.715,19.655
				c-0.047,0.089-0.079,0.177-0.079,0.274c0,0.987,0.058,1.962,0.156,2.935C17.331,137.383,17.991,143.442,19.113,149.376z
				 M238.537,106.045c0.265,0.772,0.552,1.737,0.552,1.737s0.044-0.083,0.062-0.3c0.166,0.869,0.297,1.747,0.43,2.623
				c-0.521-1.02-0.586-1.741-1.238-2.511C238.418,107.079,238.488,106.565,238.537,106.045z M35.407,128.669
				c-0.708-0.644-1.408-1.292-2.066-1.949c-3.156-3.156-5.649-6.423-7.455-9.768c1.134-3.921,2.514-7.793,4.121-11.62
				c1.705,2.857,3.913,5.637,6.612,8.333c0.892,0.901,1.851,1.771,2.842,2.636C37.878,120.417,36.511,124.548,35.407,128.669z
				 M39.517,101.278c0.293,0.677,0,2.839,0,2.839v1.621c-0.24,0.627-0.24,0.678-0.02,1.398c0,0-0.119,0.645-0.696,1.24
				c0,0,0.04,0.61,0.089,0.995c0,0-0.049,0.922,0.148,1.554c-0.197,0.483,0.046,0.683,0.139,1.451
				c0.148,0.391,0.244,0.589,0.1,0.831c-0.085,0.143-0.085,0.519,0.01,1.289c-0.62-0.559-1.228-1.12-1.801-1.698
				c-0.211-0.212-0.396-0.432-0.602-0.638c0.125-0.176,0.206-0.346,0.206-0.37c0-0.062-0.003-0.733-0.139-1.686
				c-0.142-0.951-0.096-3.351,0.387-4.028c0.486-0.684,0.436-2.373,0.436-2.373l0.483-1.656c-0.046-0.971-0.046-1.642,0.145-2.13
				c0.155-0.38,0.216-1.534,0.315-2.135c0.331,0.413,0.687,0.828,1.04,1.246C39.508,99.943,39.359,100.903,39.517,101.278z
				 M39.236,96.433c0.51-1.243,1.273-3.188,1.273-3.188c0.663,0.945,0.416,3.182-0.069,3.959c-0.069,0.116-0.145,0.267-0.222,0.44
				C39.888,97.243,39.543,96.843,39.236,96.433z M39.177,92.831c-0.066,0.609-0.516,1.504-0.838,2.359
				c-0.658-0.954-1.275-1.902-1.816-2.871c0.433-0.733,0.849-1.479,1.304-2.213c0.883-1.432,1.824-2.836,2.776-4.236
				c0.073,0.628,0.138,1.248,0.138,1.248C40.102,89.732,39.277,91.962,39.177,92.831z M37.968,96.781
				c-0.109,1.164-0.175,2.907-0.175,2.907c-1.243,0.618-1.243,0.618-1.243,0.618l0.541,2.715c-0.384,1.56-1.5,4.661-1.25,5.142
				c0.24,0.489,0.287,1.361,0.287,1.361c-0.096,0.581-0.135,1.174-0.122,1.696c-2.187-2.379-3.994-4.824-5.393-7.311
				c1.531-3.516,3.262-6.968,5.192-10.358C36.444,94.642,37.182,95.714,37.968,96.781z M36.447,129.592
				c0.602-2.302,1.289-4.593,2.038-6.88c0.214,0.294,0.019,0.102,0.019,0.102s-0.049,0.77,0.242,1.015
				c0.293,0.242,0.242,0.869,0.386,1.456c0.146,0.586,0.537,1.16,0.733,1.497c0.186,0.349,0.479,1.364,1.061,1.943
				c0.584,0.592,0.873,1.699,1.313,2.335c0.433,0.625,0.921,1.212,1.064,1.689c0.148,0.489,0.485,0.922,0.633,1.217
				c0.145,0.291,1.257,1.307,1.554,1.697c0.288,0.387,0.288,0.583,1.774,0.182c0,0,1.034,1.027,1.702,1.709
				c0,0,0.171,0.422,0.354,0.902C44.45,135.729,40.121,132.755,36.447,129.592z M54.213,132.365
				c-0.338,1.694-1.678,1.536-1.678,1.536c-0.407-1.008-0.407-1.096-1.375-1.008c-1.066,0.1-2.271-0.383-2.271-0.383
				c-0.641-1.311-0.823-1.29-1.075-2.178c-0.248-0.896-0.536-1.217-0.63-1.798c0.579-1.261,0.293-1.456,0.146-2.419
				c-0.146-0.979-0.053-2.332-0.053-2.332c0.211-0.551,0.348-0.959,0.44-1.316c2.604,1.673,5.392,3.252,8.35,4.737
				c-0.294,1.011-0.566,2.019-0.834,3.027c-0.119,0.112-0.201,0.27-0.245,0.533C54.894,131.446,54.213,132.365,54.213,132.365z
				 M48.659,118.54c0.335-0.288,1.55-1.632,1.55-1.632c0.371-1.183,0.572-1.702,0.807-2.636c0.231-0.927,0.245-1.791,1.408-1.549
				c1.163,0.244,3.681-0.386,2.909-0.776c-0.528-0.263,0.737,0.226,1.619,0.569c0.7,0.396,1.421,0.777,2.145,1.16
				c0.323,0.35,0.738,0.634,1.118,0.846c-1.412,3.809-2.683,7.651-3.81,11.489c-3.058-1.547-5.927-3.193-8.591-4.937
				c0.047-0.653,0.724-1.371,0.724-1.371C48.247,118.834,48.316,118.834,48.659,118.54z M77.686,113.697
				c1.355-0.39,3.241-1.18,3.69-1.417c0.446-0.232,1.889-1.424,1.889-1.424c0.29-1.533,0.816-2.015,0.39-2.48
				c-0.429-0.463-0.621-0.39-0.621-0.39c0.427-0.938,0.794-1.334,0.701-1.628c-0.102-0.287-0.701-1.629-0.701-1.629
				c0.621,0.519,0.942,0.677,0.958,0.964c0.003,0.026,0.003,0.051,0.003,0.059c0-0.066,0.012-0.36,0.146-0.596
				c0.191-0.339,0.146-0.471,0.191-0.876c0.047-0.41,0.348-0.509,0.73-0.628c0.379-0.112,0.482-0.144,0.142,0.288
				c-0.335,0.439-0.724,1.166-0.724,1.166s-0.245,0.683-0.245,1.071s-0.579,0.483-0.093,0.872c0.482,0.387,0.624,0.582,0.921-0.095
				c0.031-0.082,0.063-0.138,0.1-0.201c-0.161,0.52-0.336,1.015-0.498,1.535c-1.335,4.255-2.545,8.483-3.661,12.69
				c-2.982-0.862-5.847-1.818-8.626-2.835c0.086-0.505,0.172-0.964,0.172-0.964c0.819-0.77,1.557-2.131,1.557-2.131
				C74.789,113.985,76.334,114.084,77.686,113.697z M75.014,39.038c0.195-0.508,0.409-1.004,0.655-1.497
				c0.189-0.082,0.387-0.139,0.587-0.214c0.492-0.108,1.034-0.263,1.034-0.263C76.923,37.586,75.849,38.342,75.014,39.038z
				 M85.886,65.382c0.288-0.523,0.562-0.77-0.096-0.819c0,0,0.425-1.248,0.891-1.787c0.753,0.433,1.534,0.872,2.336,1.286
				c-0.972,1.177-1.91,2.392-2.854,3.608c-0.301-0.363-0.703-0.458-1.731-0.264C84.432,67.407,85.594,65.923,85.886,65.382z
				 M84.513,29.791c0.994-0.252,1.992-0.478,2.991-0.685c-0.064,0.102-0.135,0.189-0.212,0.295
				c-0.488,0.697-1.785,1.304-2.319,0.915C84.792,30.178,84.638,29.993,84.513,29.791z M96.358,29.113
				c-0.168-0.45-0.211-0.744-1.246-1.132c2.67-0.234,5.299-0.29,7.843-0.145c-0.663,0.707-1.218,1.451-1.663,2.217
				c-2.333,0.257-4.768,0.632-7.255,1.084c0.29-0.357,0.9-0.764,1.646-0.764C96.55,30.373,96.55,29.615,96.358,29.113z
				 M102.375,40.416c0.202,0.156,0.314,0.344,0.568,0.344c0.125,0.132,0.228,0.278,0.357,0.397c0.102,0.105,0.217,0.201,0.323,0.3
				c-0.602,0.333-1.199,0.671-1.803,1.012c-0.053,0.007-0.092,0.027-0.115,0.072c-0.136,0.075-0.271,0.149-0.399,0.231
				c-0.387-0.37-1.018-0.562-1.018-0.562s-0.032-0.822-0.805-0.722c-0.774,0.093-1.572,0.333-2.008-0.057
				c-0.439-0.393-1.95-0.018-1.95-0.018c-0.962,0.502-1.398,0.746-1.451,1.136c-0.044,0.387-0.82,1.209-1.111,1.306
				c-0.288,0.096-0.386,0.44-0.53,0.822c-0.147,0.389-0.403,1.311-0.403,1.311c1.272-0.05,1.133,0.05,1.467,0.293
				c0.341,0.245,0.966,0.338,1.262,0.245c0.144-0.049,0.277-0.011,0.37,0.07c-0.294,0.194-0.585,0.396-0.876,0.594
				c-0.749-0.086-2.607-0.313-3.542-0.427c0,0,0,0-0.465-0.581c-0.468-0.582-0.155-0.814,1.164-0.896c0,0,0.388-0.363,0.292-1.334
				c-0.026-0.258,0.027-0.614,0.122-1.015c1.967-0.921,3.972-1.797,6.004-2.643c0.083,0.024,0.16,0.06,0.226,0.123
				c0.244,0.189,0.777,0.136,1.021,0.088c0.244-0.044,0.72,0.049,0.72,0.049c0.057-0.632,0.057-0.724,0.444-1.064
				c0.061-0.049,0.123-0.138,0.181-0.232c0.345-0.136,0.688-0.274,1.042-0.406c0.185,0.307,0.406,0.607,0.634,0.909
				C101.389,40.215,102.135,40.221,102.375,40.416z M125.63,54.062c0,0.671,0.608,1.916,0.545,3.252c0,0-1.636,1.04-2.076,1.233
				c-0.433,0.195-0.579,1.122-0.724,1.893c-0.143,0.777-0.301,1.302-0.228,1.378c0.085,0.076,0.615,1.628,0.519,2.305
				c-0.1,0.685,0,1.506,0.873,2.475c0.87,0.974,0.779,1.648,1.015,2.333c0.241,0.675,1.114,1.068,1.504,1.351
				c0.25,0.189,1.025,0.647,1.821,1.112c-4.504-0.039-8.902-0.326-13.134-0.866c2.548-9.31,5.215-16.779,7.817-21.494
				c0.04,0.004,0.089,0.004,0.136,0.01c0.271,0.909,0.063,1.329,0.618,2.689c0,0-0.455,0.757-0.604,1.529
				C123.565,54.037,124,54.136,125.63,54.062z M114.61,70.388c-2.638-0.362-5.191-0.832-7.661-1.384
				c0.05-0.344,0.119-0.708,0.215-1.058c0,0-0.969-0.199-1.55-0.539c-0.579-0.338-0.479-1.579-0.479-2.068
				c0-0.48-0.337-0.682-1.018-0.388c-0.063,0.026-0.128,0.04-0.196,0.04c0.516-0.966,1.038-1.894,1.559-2.809
				c0.329,0.151,0.654,0.313,0.819,0.396c0.389,0.195,0.683,1.114,0.823,1.402c0.146,0.291,0.146,0.604,0.587,0.879
				c0.435,0.27,1.018,1.014,1.312,1.064c0.287,0.05,0.576,0.238,1.351,1.16c0.102,0.194,1.312,0,1.833-0.681
				c0,0,0.5-0.674,0.404-1.112c-0.102-0.431,0.627-1.311,0.727-1.936c0,0-0.962-0.666-1.209-0.759
				c-0.238-0.102-0.146-0.508-0.01-0.653c0.152-0.143,0.11-1.36,0.01-1.99c0,0,0.285,0.143,1.011,0l0.536,1.019
				c0,0,0.535,0.971,0.681,1.454c0.143,0.488,0.336,0.394,0.723,0.049c0.39-0.343,0.975-1.019,1.358-1.019
				c0.39,0,0.583-0.188,0.817-0.959c0,0-0.721-0.589-1.2-0.875c-0.489-0.297-0.532-0.925-0.532-0.925s-0.25-2.522-0.154-3.155
				c0.1-0.632-0.189-0.966-0.29-1.116c-0.096-0.145-0.723-1.461-0.922-1.987c-0.169-0.463-1.028-1.1-1.503-1.397
				c0.954-1.278,1.9-2.461,2.826-3.513c2.125,0.58,4.4,1.031,6.771,1.347C119.726,53.617,117.12,61.08,114.61,70.388z
				 M111.667,77.412c0,0,0.833-1.345,0.406-1.893c-0.423-0.542-0.389-1.111,0.054-1.909l-0.932-0.388c0,0,0.333-0.751,0.627-1.235
				c0.122-0.208,0.146-0.482,0.112-0.777c0.782,0.132,1.56,0.268,2.362,0.377c-0.548,2.056-1.081,4.202-1.613,6.421
				C112.386,77.808,112.055,77.603,111.667,77.412z M111.808,81.791c-0.031,0.145-0.07,0.295-0.1,0.433
				c-0.102-0.092-0.175-0.22-0.199-0.382C111.509,81.843,111.634,81.817,111.808,81.791z M108.096,96.578
				c0.208-0.099,0.459-0.175,0.705-0.231c-0.042,0.231-0.089,0.465-0.128,0.694c-0.234-0.036-0.459-0.075-0.691-0.11
				c-0.24-0.212-0.532-0.677-0.76-0.596c-0.29,0.093-2.087-1.139-2.62-0.995c-0.532,0.146-0.873-1.335-0.873-1.335
				s-0.29-1.147,0.198-1.742c0.487-0.608-0.099-0.969-1.573-1.347c0,0,1.282-0.595,1.959-0.312c0.678,0.294,0.87-0.986,0.678-1.471
				c-0.192-0.478-1.651-0.314-2.816,0.268c-1.157,0.576-0.868,0.093-3.198,0.288c0,0,1.166-1.071,1.553-0.972
				c0.39,0.102,1.94-0.388,2.331-1.259c0.387-0.876,0.387-0.827,0.966-0.493c0,0,0.876,0.443,1.942,0.055
				c1.065-0.389,2.517,0.678,2.517,0.678s1.212,0.175,2.18,0.263c-0.427,2.043-0.849,4.136-1.262,6.264
				C108,95.426,107.628,95.703,108.096,96.578z M87.51,103.916c0.041-0.019,0.07-0.052,0.119-0.069
				c0.488-0.195,0.855-0.463,0.756-0.746c-0.093-0.295,0-0.927,0-0.927c0.508-0.364,1.768-0.797,1.939-0.784
				c0.175,0.019,0.407-0.163,0.896,0.033c0.483,0.198,0.677,0.343,1.067,0.049c0.389-0.295,1.18-0.012,1.744,0.095
				c0.567,0.106,0.872,0.054,0.968-0.49c-0.401,0.554-0.614,0.202-0.968-0.287c-0.241-0.338-0.446-0.639-0.446-0.639
				c0.644-0.57,0.786-0.858,0.932-1.348c0.146-0.482,0.414-0.88,0.855-0.978c0.599-0.093,1.377-0.042,1.618-0.281
				c0.248-0.244,1.166-0.294,1.502-0.294c0.343,0,1.378-0.357,1.378-0.357c-0.004-0.037,0.009-0.056,0.009-0.086
				c0.882,0.175,1.778,0.331,2.669,0.5c-0.343,0.119-0.66,0.231-0.849,0.288c-0.68,0.188-0.342,1.166-0.198,1.943
				c0.145,0.769,1.064-0.446,1.648-1.315c0.216-0.321,0.535-0.509,0.948-0.641c1.441,0.242,2.887,0.462,4.355,0.665
				c-1.603,8.707-3.065,18-4.302,27.523c-7.683-1.035-15.023-2.525-21.874-4.43C83.856,115.393,85.626,109.574,87.51,103.916z
				 M85.982,103.564c0.057,0.057,0.112,0.12,0.158,0.193c-0.043,0.139-0.082,0.27-0.125,0.397
				C85.982,103.847,85.982,103.564,85.982,103.564z M101.399,56.561c0.298,0.578,1.164,0.578,1.651,0.095
				c0.49-0.482,0.969-0.915,1.553-1.114c0.581-0.196,1.167-1.405,1.065-2.086c-0.09-0.678-0.188-1.16-0.188-1.16
				s-0.433-0.895-0.799-0.409c-0.369,0.483-1.534,0.654-2.306,0.361c-0.248-0.096-0.373-0.165-0.489-0.209
				c0.691-0.661,1.368-1.322,2.066-1.967c-0.231,0.346,0.462,0.389,0.462,0.765c0,0.487,0.219,0.632,0.769,0.685
				c0.553,0.046,0.974,0,1.166,0.285c0.198,0.29,1.359,0.489,1.895,0.489c0.533,0,0.629,0.132,0.964,0.67l0.06,0.66
				c-0.693,1.015-1.394,2.094-2.087,3.208c-0.034,0.006-0.059,0.01-0.105,0.016c-0.334,0.047-0.608,0.334-0.221,0.232
				c0.053-0.006,0.119-0.016,0.181-0.031c-0.568,0.908-1.139,1.856-1.705,2.816c-0.195-0.095-0.371-0.176-0.496-0.222
				c-0.432-0.141-0.328-0.021-0.473,0.216c-0.148,0.237-0.534,0.536-0.968,0.581l0.434,0.627c0,0,0.208,0.431,0.448,0.602
				c-0.516,0.902-1.033,1.826-1.544,2.768c-0.267-0.225-0.509-0.458-0.688-0.595c0,0-1.267,1.354-1.656,1.836
				c-0.3,0.377-0.485,0.809-0.575,1.435c-3.172-1.004-6.155-2.137-8.868-3.444c1.523-1.807,3.087-3.561,4.681-5.284
				c0.225,0.07,0.486,0.169,0.835,0.325c0,0,0.85-0.674,0.85-1.935c0,0,1.328-0.456,1.768-0.991
				C99.513,55.251,101.111,55.978,101.399,56.561z M101.062,51.136l0.149-0.301c0,0,0.333-0.813,0.912-0.813
				c0.057,0,0.115-0.03,0.172-0.07C101.881,50.339,101.469,50.743,101.062,51.136z M102.375,49.877
				c0.412-0.463,0.63-1.919,0.63-2.244c0-0.381,1.597-0.485,1.891-0.777c0.239-0.238,1.084-0.675,1.698-0.763
				C105.168,47.328,103.759,48.581,102.375,49.877z M107.475,60.34c0,0-0.444-0.244-0.787-0.043
				c-0.033,0.024-0.08,0.024-0.135,0.032c0.969-1.649,1.93-3.208,2.888-4.682c0.04,0.404,0.156,1.129,0.442,2.288l-0.917,0.665
				c0,0-0.932,0.436-1.412,0.582C107.069,59.325,107.513,59.814,107.475,60.34z M99.596,68.335c-0.1,0.199-0.254,0.407-0.519,0.497
				c-0.641,0.211-0.777,0.241-2.039,0.437c0,0,0.38,0.08,0.823,0.774c0.449,0.697,0.175,0.421,0.098,1.5
				c-0.075,1.093-0.145,0.726-0.413,2.61l-0.556,0.254c0,0-1.404,0.87-2.718,1.163c0,0-0.863,0.389-1.542,0.684
				c-0.677,0.287-0.35,1.453-0.538,2.323c-0.196,0.876-0.235,1.011,0.307,1.705c-0.776,0-1.377,1.014-1.788,1.322
				c0,0,0.1-0.095-0.754-0.308c-0.849-0.218-0.631-1.755-0.921-2.135c-0.29-0.388,0.283-1.668,0.437-2.131
				c0.151-0.469-0.39-1.841,1.397-2.95c0,0-1.255-1.123-1.932-1.223c-0.678-0.1-0.921-0.87-1.015-1.652
				c-0.082-0.621-0.655-1.599-1.101-2.401c1.09-1.398,2.183-2.814,3.317-4.173C93.026,66.036,96.203,67.271,99.596,68.335z
				 M101.357,95.838c0.809-0.099,1.715,0.115,2.58,0.471C103.068,96.165,102.212,95.995,101.357,95.838z M104.896,71.598
				c0,0,1.007-0.783,1.491-0.783c0.195,0,0.292-0.231,0.367-0.595c1.2,0.263,2.418,0.509,3.657,0.739
				c-0.264,0.247-0.472,0.44-0.472,0.44s-1.299,0.638-2.231,0.682C106.778,72.118,106.933,72.565,104.896,71.598z M112.565,49.106
				c-0.059-0.055-0.12-0.12-0.153-0.214c-0.097-0.239-0.285-0.658-0.285-0.658s-0.685-0.356-0.85-0.305
				c-0.128,0.439-0.756,1.166-0.082,1.311c0.582,0.119,0.633-0.053,0.833,0.199c0.049,0.063,0.119,0.1,0.187,0.132
				c-0.181,0.232-0.359,0.467-0.541,0.714c-0.206-0.275-0.68-0.608-1.167-0.802c-0.1-0.591,0.539-1.794,0.539-1.794
				s-0.917-0.393-1.47-0.611c0,0-0.369-0.222-0.703-0.022c-0.292,0.164-0.954,0.151-1.589,0.07c0.705-0.61,1.39-1.246,2.101-1.837
				c0.498,0.238,1.027,0.45,1.549,0.671c0.516,0.281,1.012,0.571,1.239,0.703c0.209,0.13,0.428,0.105,0.628,0.006
				c0.455,0.161,0.899,0.33,1.372,0.479C113.641,47.772,113.102,48.425,112.565,49.106z M107.109,45.641
				c-0.14-0.307-0.466-0.688-0.873-0.896c-0.777-0.387-1.053,0.276-1.34,0.757c-0.294,0.485-1.225,0.985-1.612,1.576
				c-0.389,0.579-0.853-0.158-1.734,0.85c-0.196,0.389-0.588,0.539-1.682,0.932c0,0-0.014,0.622,0.468,1.4
				c0,0-0.68,0.337-0.872,0.819c-0.195,0.487-1.794,0.727-3.006,1.422c0.43-1.861-1.262-2.638-2.484-2.638
				c0,0-0.176-0.462-0.248-0.826c0.67-0.478,1.351-0.932,2.031-1.384c0.136,0.036,0.274,0.119,0.46,0.225
				c0.383,0.245,1.328,0.205,1.328,0.205c-0.023-0.493,0.026-0.832,0.413-1.125c0.291-0.214,0.48-0.717,0.529-1.067
				c2.033-1.271,4.074-2.468,6.115-3.572c1.058,0.861,2.259,1.653,3.599,2.371C107.83,44.995,107.475,45.326,107.109,45.641z
				 M100.656,31.38c-0.305,0.779-0.486,1.58-0.538,2.402c-2.908,0.552-6.216,1.397-9.78,2.541c0.018-0.062,0.049-0.122,0.054-0.182
				c0.096-0.68,0.739-1.063,1.454-1.933c0.357-0.439,0.826-1.067,1.218-1.623C95.664,32.078,98.214,31.664,100.656,31.38z
				 M92.964,28.476c-0.584,0.3-1.165-0.045-1.651,1.027l-2.076,0.424c0,0,0.922-0.9,1.45-1.397c1.265-0.195,2.517-0.361,3.769-0.482
				C94.107,28.224,93.403,28.261,92.964,28.476z M100.135,35.032c0.083,0.918,0.334,1.828,0.743,2.726
				c-0.063,0.02-0.122,0.046-0.188,0.07c-0.264-0.37-0.422-0.64-0.743-0.282c-0.391,0.446-1.114,0.344-1.114,0.344
				s-0.875,0.045-1.311,0.29c-0.432,0.244-1.164,0.383-1.305,0.288c-0.146-0.095-0.535,0-0.925,0.439
				c-0.39,0.438-1.01,1.185-1.01,1.185l0.476,0.03c0.208-0.109,0.422-0.13,0.604-0.117c-1.048,0.45-2.092,0.915-3.125,1.387
				c0.22-0.786,0.435-1.632,0.492-2.459c0,0-1.273-0.463-1.999-0.898c-0.726-0.437-0.716-0.267-1.552,0l-0.328,0.115
				c0,0,0.024-0.026,0.075-0.063C93.033,36.677,96.837,35.666,100.135,35.032z M88.929,60.415c0,0,0.932-0.075,2.098-0.232
				c0.488-0.67,1.892-1.147,1.892-1.147s0.222-0.017,0.515-0.062c-1.225,1.355-2.435,2.716-3.612,4.123
				c-0.691-0.35-1.358-0.713-2.009-1.077C88.117,61.586,88.448,60.972,88.929,60.415z M72.941,42.469
				c-0.019,0.014-0.034,0.027-0.057,0.027c-0.628,0.164-1.625,1.529-2.228,2.343c-6.543,3.576-13.242,8.026-19.652,13.49
				c0.205-3.102,1.172-6.173,2.844-9.143c6.259-4.613,13.183-8.246,20.204-11.032C73.466,39.557,73.097,41.002,72.941,42.469z
				 M71.686,45.669c-1.246,0.799-2.89,2.21-3.555,2.742c-0.773,0.632-1.473,1.222-1.473,1.222c0.855,0.083,1.375,0.132,0.409,0.82
				c-0.972,0.678-6.953,5.935-7.001,6.711c-0.055,0.77-0.468,3.327-1.242,4.004c-0.779,0.683-2.426,2.956-2.426,2.956
				c-0.137-1.527,0-2.814-0.681-1.251c-0.661,1.497-2.267,3.902-3.163,4.398c-0.972-2.384-1.519-4.818-1.573-7.308
				C57.715,54.118,64.799,49.396,71.686,45.669z M66.303,115.75c-0.759-0.326-1.471-0.675-2.2-1.014
				c1.163-0.037,1.104-0.997,1.857,0.469C66.065,115.405,66.178,115.587,66.303,115.75z M75.085,148.975
				c-0.931-0.274-1.884-0.532-2.802-0.822c-3.779-1.189-7.366-2.492-10.798-3.896c-0.053-0.1-0.095-0.195-0.095-0.307
				c0-0.483-0.639-1.053-1.258-1.253c-0.585-0.192-1.064-0.149-1.308-0.487c-0.244-0.344,0-0.293-1.114-0.44
				c-1.113-0.144-1.801-0.479-1.993-0.727c-0.191-0.242-0.617-0.619-0.617-0.619c0.961-0.638,0.901-1.015,1.005-1.271
				c0.105-0.252,0.155-0.208,0.155-0.208c-0.009-0.857-0.106-1.052,0.137-1.583c0.241-0.541,0.328-1.202,0.328-1.202
				c0.3,0.43,0.621,0.925,0.621,0.925c0.457-0.214,0.363-0.796,0.457-1.278c0.096-0.485,0.263-1.582,0.68-1.748
				c0.532-1.065,0.793-0.892,1.163-1.454c0.364-0.556,0.386-0.576-0.1-1.159c-0.479-0.589-0.337-1.114-1.501-1.114
				c-0.954,0-1.054-0.176-1.496-0.258c0.214-0.77,0.416-1.54,0.637-2.317c2.36,1.15,4.856,2.224,7.411,3.251
				c-0.421,0.181-1.032,0.552-1.508,0.952c0,0,0.873,0.258,1.262,0.069c0.389-0.201,0.912-0.156,1.589,0.42
				c0.675,0.581,1.293,0.653,1.951,0.985c0.661,0.324,1.262,0.192,1.355,0.87c0.097,0.681,1.985,1.358,2.613,1.698
				c0.631,0.343,0.301,0.487,0.492,1.256c0.198,0.777,1.683,1.455,2.083,1.556c0,0-0.711,0.056-1.566,0.83
				c-0.853,0.779,0.888,0.478,1.857,0.285c0.535-0.107,1.203,0.034,1.903,0.219C76.057,143.12,75.528,146.068,75.085,148.975z
				 M76.843,139.027c-0.007,0-0.014-0.013-0.027-0.026c-0.295-0.526-1.213-1.21-1.213-1.21s-1.989-2.273-2.571-2.567
				c-0.315-0.158-1.282-1.045-2.207-1.9c2.191,0.76,4.417,1.478,6.717,2.145C77.29,136.666,77.076,137.843,76.843,139.027z
				 M77.805,134.274c-7.357-2.132-14.167-4.719-20.273-7.711c1.14-3.92,2.435-7.837,3.873-11.714
				c2.527,1.227,5.204,2.38,7.966,3.464c0.185,0.534,0.315,1.134,0.315,1.473c0,0.651-0.779,2.056-0.621,2.248
				c0.158,0.195,0.503,3.63,0.388,4.037c-0.446,1.583,0.133,2.653,1.298,2.173c0.518-0.218,0.73-0.589,0.876-1.554
				c0.143-0.978,0.677-0.194,0.629-2.135c-0.04-1.534-0.047-3.883,0-5.151c2.725,0.979,5.521,1.918,8.435,2.758
				C79.631,126.237,78.668,130.281,77.805,134.274z M102.539,139.395c-8.25-1.106-16.127-2.712-23.478-4.772
				c0.872-4.063,1.848-8.101,2.894-12.11c6.909,1.934,14.303,3.432,22.035,4.473C103.46,131.089,102.981,135.243,102.539,139.395z
				 M129.071,141.176c-8.768-0.026-17.326-0.596-25.528-1.655c0.433-4.146,0.918-8.287,1.457-12.399
				c7.739,0.998,15.813,1.53,24.071,1.553V141.176z M129.071,127.446c-8.207-0.03-16.23-0.549-23.912-1.546
				c1.243-9.499,2.707-18.79,4.335-27.517c6.298,0.82,12.86,1.252,19.577,1.278V127.446z M129.071,98.432
				c-6.643-0.029-13.126-0.463-19.349-1.252c0.072-0.381,0.142-0.747,0.218-1.12c0.007-0.014,0.013-0.014,0.017-0.026
				c0.016-0.02,0.016-0.063,0.01-0.107c0.516-2.712,1.048-5.362,1.594-7.937h0.026c0.406-0.119,1.704-0.814,2.094-1.497
				c0.387-0.677,1.301-0.545,2.171-0.151c0.879,0.388,1.212-1.454,1.362-2.137c0.139-0.677,0.086-1.458-0.535-1.942
				c-0.617-0.482-0.746-0.733-1.602-0.68c-0.85,0.059-1.404,0.777-2.085,0.872c-0.073,0.014-0.145,0.008-0.221,0.014
				c0.076-0.307,0.144-0.622,0.211-0.932c0.211-0.059,0.404-0.122,0.541-0.196c0.588-0.287,1.076-0.726,2.819-0.432
				c0,0-0.875-0.44-1.652-1.117c-0.343-0.3-0.668-0.645-1.055-1.008c0.592-2.441,1.182-4.803,1.784-7.06
				c4.4,0.564,8.968,0.878,13.652,0.9V98.432z M130.305,141.176v-12.5c8.257-0.023,16.323-0.555,24.058-1.553
				c0.528,4.112,1.015,8.253,1.456,12.386C147.659,140.569,139.112,141.15,130.305,141.176z M132.249,67.225
				c0.579-0.28,2.033-1.547,2.33-2.416c0.288-0.872,0.868-1.311,1.549-1.699c0.681-0.389,1.405-1.215,1.84-1.8
				c0.439-0.575,1.461-1.357,1.942-1.741c0.07-0.056,0.165-0.129,0.264-0.218c1.159,3.319,2.315,7.06,3.44,11.189
				c-3.891,0.495-7.947,0.77-12.12,0.841c0.168-0.102,0.317-0.189,0.427-0.253c0.48-0.293,0.523-0.896,0.54-2.009
				C131.929,68.384,131.664,67.526,132.249,67.225z M144.326,53.51c-0.534-0.688-0.268-0.944-0.846-1.238
				c-0.581-0.285-1.474-0.515-1.863-1.007c-0.39-0.48-0.736-0.625,0.04-0.912c0.776-0.295,1.355-0.721,1.355-0.721
				c-0.32-0.74-0.585-1.248-0.74-1.725c0.542-0.129,1.094-0.235,1.609-0.379c2.566,2.924,5.256,6.708,7.976,11.195
				c-0.241,0.05-0.389,0.234-0.389,0.612c-2.442,0.523-2.633,1.669-3.416,1.078c-0.767-0.575-1.399-1.078-1.692,0.125
				c-0.294,1.203-0.241,1.203-0.241,1.203c1.111-0.044,1.685,1.13,2.637,0.928c0,0-0.505,1.404,0.561,1.309
				c1.065-0.095,1.458-0.095,2.326-0.533c0.878-0.436,1.215-1.163,1.891-1.163c0.145,0,0.263-0.024,0.37-0.065
				c1.018,1.806,2.043,3.685,3.054,5.659c-3.814,1.058-7.911,1.904-12.216,2.5c-1.187-4.397-2.394-8.37-3.605-11.859
				c0.268-0.234,0.466-0.407,0.466-0.407s1.962-2.505,2.335-3.002c0.364-0.509,0.14-0.878-0.733-0.483
				c-0.866,0.383-2.085,0.916-2.377,0.139c-0.288-0.771-0.436-1.8-0.607-2.031c0.751-0.049,0.998-0.007,1.294,0.389
				c0.29,0.387,1.355,0.575,1.838,0.482C143.84,53.51,144.857,54.181,144.326,53.51z M165.515,46.569
				c0.069,0.277,0.234,0.716,0.448,1.203c-3.381-2.317-6.791-4.443-10.213-6.303c0.109-0.107,0.222-0.201,0.327-0.312
				c0.743-0.734,1.348-1.512,1.833-2.307c2.482,0.951,4.899,1.954,7.287,3.019c0.212,0.816,0.365,2.689-0.017,3.442
				C164.752,46.149,165.283,45.598,165.515,46.569z M167.233,50.176c0.315,0.483,0.642,0.915,0.955,1.2
				c1.101,1.01,1.308,2.28,1.404,3.25c0.093,0.965,1.305,5.715,2.523,6.684c0.089,0.079,0.175,0.152,0.268,0.228
				c-0.91,0.539-1.846,1.065-2.835,1.559c-5.682-6.754-11.838-12.92-18.386-18.402c1.344-0.721,2.548-1.507,3.601-2.369
				C158.949,44.573,163.129,47.22,167.233,50.176z M176.768,63.253c-0.483-1.071-0.105-1.276-0.436-2.134
				c-0.119-0.31-0.149-0.496-0.122-0.611c0.058-0.036,0.115-0.075,0.168-0.112c0.106,0.007,0.238,0.056,0.39,0.144
				c0.969,0,1.217,0.528,1.751,1.065c0.53,0.535,3.003,1.542,3.291,2.374c0.295,0.835,1.633,2.438,1.868,2.263
				c0.231-0.177-0.8-0.428-0.08-0.934c0.374-0.264,0.453-0.618,0.394-0.939c0.812,0.803,1.619,1.61,2.424,2.436
				c-0.824-0.359-1.666-0.547-2.274-0.105c-0.678,0.48-1.603,0.767-1.603,0.767c-0.628-0.386-1.248-0.737-1.26-1.641
				c-0.007-0.908,0.267-0.92-0.338-0.92c-0.601-0.013-0.601-0.063-0.601-0.063l-1.242-1.711c-0.343,1.19-0.578,2.062,0.195,2.451
				c0.777,0.389,2.253,1.553,2.445,2.287c0.189,0.726,1.008,3.184,1.008,3.184c-0.688,0.445-1.176,0.688-0.935,1.702
				c0.247,1.017,0.585,2.865-0.093,3.978c-0.681,1.116-0.148,0.922-0.047,1.648c0.047,0.372,0.073,0.822,0.002,1.179
				c-0.411-0.64-0.84-1.265-1.259-1.897c0.179-0.139,0.315-0.252,0.315-0.252c-0.513-0.776-0.934-2.362-1.047-2.613
				c-0.399,0.063-0.783,0.113-1.096,0.126c-2.614-3.766-5.366-7.385-8.241-10.851c1.041-0.545,2.026-1.109,2.983-1.679
				c0.787,0.752,1.427,1.447,1.427,1.447C176.378,64.223,177.251,64.324,176.768,63.253z M168.616,94.642
				c3.119,8.435,5.997,17.417,8.462,26.648c-6.821,1.904-14.154,3.407-21.87,4.461c-1.236-9.518-2.696-18.797-4.293-27.505
				C157.123,97.405,163.059,96.19,168.616,94.642z M150.685,97.019c-1.741-9.318-3.642-17.938-5.613-25.432
				c4.375-0.609,8.544-1.491,12.464-2.589c3.665,7.225,7.282,15.508,10.633,24.454C162.712,94.976,156.849,96.177,150.685,97.019z
				 M158.83,68.63c3.751-1.123,7.239-2.458,10.397-3.992c1.986,2.393,3.893,4.885,5.753,7.425c-0.229-0.132-0.499-0.265-0.832-0.465
				c-0.635-0.393-1.555-0.445-1.555-0.445l-0.945-0.026c0.224-1.128-0.407-2.981-0.776-3.026c-0.843,0.044-1.427,0.829-1.716,0.582
				l-0.242-1.408l-1.302,1.139c0,0,0.522,1.385,0.769,1.919c0.241,0.536,1.359,1.698,1.598,2.231
				c0.242,0.538,0.485,0.581,0.977,0.393c0.48-0.201,1.108-0.393,2.032-0.055c0.07,0.231-0.017,0.74,0.241,0.968
				c0.264,0.234,0.873,0.727,1.165,1.117c0.288,0.389,0.533,0.68,0.533,1.027c0,0.328-0.245,1.203-0.579,1.542
				c-0.343,0.346-0.136,0.948,0.189,1.073c0,0,0.49-0.384,0.733-0.685c0.243-0.287,0.243,0.347,0.774,0.535
				c0.533,0.192,0.092,0.638,0.092,1.214c0,0.584,0.1,0.72-0.288,1.311c0.34,0.05,0.777-0.29,1.165-0.44
				c0.387-0.15,1.018-0.476,1.166-0.971c0.135-0.446,0.606-1.127,1.147-1.342c0.449,0.671,0.902,1.338,1.341,2.012
				c-0.553,0.126-1.182,0.334-1.182,0.334s0.586,0.649,1.477,1.628c0,0-2.195,0.446-2.541,1.203c-0.349,0.759,0.1,1.023,1.064,1.404
				c0.39-0.381,1.021-0.044,2.641-0.195c-0.1,1.352,0.754,1.021,1.555,1.234c0.065,0.15,0.318,0.809,0.634,1.643
				c-4.47,2.131-9.441,4.011-14.831,5.578C166.161,84.205,162.541,75.922,158.83,68.63z M168.405,63.661
				c-3.062,1.467-6.466,2.763-10.148,3.853c-1.193-2.319-2.398-4.512-3.612-6.596c0.195-0.489,0.516-0.816-0.665-1.448
				c-0.093-0.044-0.175-0.086-0.262-0.133c-2.867-4.81-5.743-8.94-8.53-12.188c1.712-0.531,3.324-1.143,4.794-1.853
				C156.541,50.754,162.712,56.907,168.405,63.661z M143.939,71.725c2.007,7.498,3.938,16.133,5.693,25.444
				c-6.179,0.8-12.654,1.229-19.327,1.259V72.625C134.983,72.602,139.547,72.295,143.939,71.725z M149.869,98.383
				c1.619,8.72,3.088,18.013,4.326,27.504c-7.636,0.997-15.639,1.529-23.89,1.559V99.661
				C137.017,99.635,143.572,99.203,149.869,98.383z M179.742,134.709c-7.163,1.988-14.841,3.567-22.923,4.655
				c-0.442-4.14-0.922-8.276-1.449-12.368c7.728-1.044,15.125-2.55,22.032-4.474c0.961,3.68,1.854,7.395,2.674,11.123
				C179.864,134.001,179.808,134.245,179.742,134.709z M184.433,122.711c0,0-1.699,1.791-2.135,2.862
				c-0.44,1.067-1.067,2.22-1.262,3.284c-0.085,0.459-0.153,1.206-0.258,1.987c-0.657-2.875-1.351-5.759-2.114-8.671
				c2.442-0.71,4.795-1.48,7.102-2.289c0.026,0.088,0.049,0.189,0.083,0.29L184.433,122.711z M232.887,96.948
				c0.271,0.389,0.555,0.721,0.817,0.835c0.677,0.295,1.362,1.798,1.501,2.18c0.152,0.396,1.429,2.419,2.012,2.908
				c0.093,0.073,0.169,0.181,0.248,0.292c0,0.014,0.008,0.026,0.008,0.04c0,1.064-0.068,2.122-0.195,3.162
				c-0.442-0.577-0.736-1.058-1.101-1.496c-0.562-0.685-1.5-1.751-1.599-2.528c-0.099-0.774-0.988-3.032-1.86-3.125
				c-0.169-0.013-0.308-0.066-0.46-0.125C232.501,98.383,232.716,97.669,232.887,96.948z M227.987,76.493
				c0.267,0.219,0.45,0.301,0.581,0.294c0.744,1.424,1.444,2.862,2.125,4.318c0.708,1.629-0.532,0.657-0.82-0.1
				c-0.288-0.773-1.154-1.843-1.735-2.036c-0.258-0.085-0.468-0.438-0.677-0.859c-0.056-0.708-0.133-1.421-0.244-2.131
				C227.432,76.09,227.676,76.255,227.987,76.493z M225.126,90.55c2.078,1.83,2.201,1.566,2.009,0.984
				c1.673,1.296,1.823,1.498,3.272,2.081c1.358,0.543,1.463,1.235,1.588,1.636c-0.204,1.021-0.463,2.029-0.782,3.031
				c-0.178-0.216-0.344-0.459-0.515-0.74c-0.578-0.965-1.791-2.28-2.573-3.151c-0.75-0.85-2.523-3.366-3.006-3.836
				C225.12,90.556,225.126,90.556,225.126,90.55z M219.586,78.608c-0.006,0.046,0.029,0.191,0.495,0.554
				c0.615,0.482,1.552,2.669,1.793,3.294c0.241,0.634,1.018,2.283,2,4.425c0,0-0.549,1.207-1.081,1.735
				c-0.158,0.162-0.257,0.4-0.323,0.675c-1.494-2.418-3.079-4.768-4.741-7.067C218.255,81.454,218.964,79.757,219.586,78.608z
				 M208.164,67.256c0.285-0.759,0.523-1.51,0.726-2.266c0.744-0.02,1.741-0.057,2.504-0.132c1.362-0.145,0.876,0.049,2.076,1.384
				c0.062,0.312-0.136,1.673,0.391,3.416c0,0-0.677,0.724-0.776,0.77c-0.098,0.05-0.427,0.301-1.319-0.233l-0.219,1.109
				c0,0-0.056,1.352,0.188,2.23c0.148,0.539,0.178,0.827,0.032,1.123c-1.484-1.741-3.02-3.452-4.609-5.112
				c0.294-0.584,0.555-1.18,0.793-1.775C208.5,67.816,208.385,67.572,208.164,67.256z M207.728,64.588
				c-0.116,0.457-0.268,0.915-0.419,1.365c-0.132-0.06-0.295-0.113-0.515-0.125c-0.685-0.06-0.35-0.751-0.929-1.447
				c-0.576-0.703-0.238-2.098-0.389-3.647C205.572,60.735,206.94,62.452,207.728,64.588z M206.158,66.313
				c0.024,0.305,0.226,0.704,0.625,1.024c-0.172,0.422-0.338,0.855-0.545,1.275c-0.548-0.565-1.115-1.117-1.68-1.666
				c-0.006-0.258-0.011-0.535-0.011-0.858C204.936,66.574,205.325,66.945,206.158,66.313z M205.012,81.53
				c0,0,0.515,0.638,0.853,1.17c0.344,0.539,0.879,0.909,1.457,1.308c0.584,0.41,1.695,0.972,2.281,1.361
				c0.581,0.388,0.614,0.421,1.234-0.119c0,0-0.02,0.609,0,1.404c0.367,0.171,1.885,0.948,2.329,1.235
				c0.433,0.294,0.255-0.419-0.166-1.598c-0.427-1.183-0.83-0.677-1.509-0.872c-0.674-0.194,0.099-0.779,0.586-0.681
				c0.481,0.093,0.519-0.226,0-0.803c-0.53-0.584-0.873-0.07-1.706-0.082l0.232-0.852c0.344-0.621-0.951-2.194-1.292-3.063
				c-0.343-0.879,0.998-1.278,1.691-1.166c0.703,0.119,0.016-1.824,0.068-2.6c0.047-0.777-1.149-0.244-1.479-0.622
				c-0.33-0.362-2.558-3.369-2.749-4.152c-0.047-0.169-0.122-0.383-0.231-0.614c1.484,1.559,2.925,3.164,4.319,4.806
				c-0.099,0.119-0.037,0.149,0.148,0.181c0.248,0.288,0.48,0.596,0.726,0.889c-0.059,0.746-0.221,1.922-0.657,2.778
				c0,0-0.053,0,0.4,0.5c0.443,0.499,1.13,1.358,1.619,2.137c0.476,0.768,1.044,0.718,2.401,1.703c0,0-0.05,0,0.142-0.647
				c0.107-0.331,0.364-0.532,0.665-0.607c1.811,2.464,3.549,4.98,5.157,7.58c0.28,0.451,0.535,0.909,0.793,1.352
				c0,0.128,0,0.258-0.009,0.397c0,0-1.848,1.078-2.234,1.421c-0.39,0.339-1.992,0.528-2.671,0.575
				c-0.68,0.052-1.212,0.489-1.599,1.512c0,0-0.062,0.945-0.014,1.529c0.055,0.579,0.858,1.917,1.246,2.412
				c0.163,0.201,0.198,0.376,0.166,0.552c-0.25,0.262-0.495,0.528-0.756,0.796c-0.541,0.073-2.176,0.305-3.135,0.507
				c0,0-0.33-0.321-0.684-0.645c-1.589-2.964-3.303-5.915-5.138-8.817c-0.006-0.188-0.058-0.364-0.174-0.463
				c-0.065-0.044-0.151-0.13-0.245-0.219c-0.925-1.447-1.884-2.897-2.861-4.322l0.255,0.037c0.33,0.287,1.443,0.965,1.638,1.936
				c0.195,0.972,1.076,1.246,1.076,1.246s-0.532-1.999-0.384-2.487c0.146-0.482-1.173-1.183-1.708-1.867
				c-0.535-0.671,0.773-0.383,1.628-0.231l-0.231-0.541c0,0,0.543-0.337-0.912-0.146c-0.654,0.085-1.99-0.274-3.285-0.693
				c-0.835-1.167-1.686-2.325-2.564-3.482C201.13,80.854,203.385,81.335,205.012,81.53z M200.263,83.223
				c-0.648-0.247-1.087-0.429-1.087-0.429s-1.925-0.526-2.322-1.445c0.422-0.325,0.858-0.645,1.265-0.984
				C198.846,81.308,199.562,82.268,200.263,83.223z M196.878,79.355c0,0,0.152,0.046,0.376,0.125
				c-0.314,0.264-0.654,0.508-0.981,0.76C196.338,80.019,196.532,79.757,196.878,79.355z M190.814,93.859
				c0.343-0.67,1.242-2.401,1.242-2.401c-0.549-1.291-0.931-2.303-1.22-2.7c0.819-0.331,1.451-1.027,1.451-1.027
				c0.879-0.089,1.362-0.225,1.458-1.001c0.095-0.783,0.717-2.795,0.717-2.795c0.446-0.169,1.21-0.413,1.552-0.082
				c0.336,0.337,1.772,1.234,2.143,1.612c0.369,0.379,1.07,0.437,1.07,0.437l1.209,0.044c0,0,0.632,0.493,1.313,0.344
				c0.25-0.057,0.498-0.027,0.713,0.019c1.04,1.49,2.04,2.994,3.013,4.504c-0.085,0.125-0.171,0.259-0.238,0.376
				c-0.244,0.437-0.535,0.433-0.678,0.727c-0.146,0.287,0.219,0.784,0.678,0.483c0.317-0.208,0.813-0.037,1.271,0.024
				c1.595,2.551,3.105,5.125,4.528,7.719c-0.868,0.242-2.056,0.707-2.448,0.839c-0.579,0.194-1.655,0.489-2.72-0.211
				c0,0-0.097-1.632-0.046-2.209c0.046-0.586-0.029-0.944-0.828-1.51c-0.794-0.562-0.678-0.049-0.986-2.329
				c-0.196,0.671-0.804,0.638-1.476,0.38c0,0,0.097,0.102-0.251,0.64c-0.347,0.545-1.021,1.46-1.797,1.648
				c-0.774,0.202-2.57,1.943-4.414,3.302c-0.927,0.683-1.46,1.305-1.824,1.886c-1.123-2.474-2.293-4.912-3.515-7.312
				C190.658,94.774,190.573,94.349,190.814,93.859z M191.2,102.87c0.329-0.508,0.608-1.622,0.717-2.406
				c0.558,1.166,1.087,2.347,1.623,3.533c-0.031,0.062-0.059,0.125-0.086,0.186c-0.486,1.024-1.111,1.605-2.036,2.138
				c-0.931,0.521-1.848,0.739-2.914,0.487c-1.068-0.255-1.258,1.159-1.159,2.807c0.09,1.649-0.876,2.62-1.461,3.202
				c-0.577,0.578-0.534,1.454-0.534,1.943c0,0.381-0.202,2.01,0.119,3.866c-2.316,0.806-4.671,1.592-7.124,2.297
				c-1.119-4.183-2.325-8.402-3.645-12.636c-1.497-4.785-3.097-9.472-4.775-14.016c5.353-1.546,10.319-3.432,14.828-5.583
				c0.357,0.955,0.717,1.933,0.944,2.54c-0.681-0.196-1.8,0.733-4.078,1.365c-0.873-0.095-1.794,0.538-2.233,0.634
				c-0.435,0.093-0.754,0.407-0.754,0.407s-1.037,1.673-0.404,2.109c0.628,0.439,1.065,1.261,1.213,1.747
				c0.145,0.486,1.018,3.686,1.018,4.13c0,0.426-0.053,1.16,0.578,1.16c0.634,0,0.822,0.29,1.021,0.777
				c0.191,0.476,0.612,2.099,0.612,2.099c0.743-0.356,2.233-1.653,2.869-1.003c0.545,0.552,2.171,1.233,2.171,1.233
				c0.46-0.295,0.46-0.883,0.46-0.883s-0.102-0.77,1.166-1.109C190.589,103.558,191.2,102.87,191.2,102.87z M184.347,52.282
				c0.131,0.445,0.183,0.796-0.105,0.796c-0.489,0-1.642,1.787-1.108,2.22c0.53,0.443,0.863,0.783,1.396,0.926
				c0.534,0.145,1.354,0.822,1.889,1.064c0.532,0.244,0.73,0.535-0.336,0.389c-0.525-0.075-1.542,0.095-1.088,0.489
				c0.263,0.236,0.701,0.956,1.231,1.159c0.536,0.195,0.971,0.582,1.166,0.972c0.192,0.389,0.969,1.258,0.969,1.553
				c0,0.29,0.129,1.992,0.129,1.992c-0.522-0.344-1.395,0.043-1.441,0.571c-0.019,0.219-0.076,0.67-0.144,1.134
				c-0.89-0.915-1.788-1.805-2.69-2.687c-0.057-0.158-0.187-0.333-0.411-0.533c-0.286-0.243-0.793-0.657-1.306-1.109
				c-0.391-0.369-0.786-0.746-1.186-1.11c-0.248-0.263-0.414-0.483-0.429-0.619c-0.046-0.483,0.735-2.148-0.235-2.64
				c-0.014-0.006-0.037-0.006-0.05-0.016c1.486-1.505,2.695-3.046,3.625-4.638C184.266,52.225,184.304,52.258,184.347,52.282z
				 M182.247,52.489c0.155-0.602,0.107-1.224,0.107-1.224c0.11,0,0.222-0.017,0.334-0.04c0.162,0.097,0.327,0.201,0.49,0.301
				c-0.313,0.539-0.66,1.077-1.044,1.611C182.16,52.905,182.187,52.727,182.247,52.489z M180.839,54.765
				c-0.485,0.558-1.015,1.102-1.573,1.642c-0.412-0.082-0.713-0.096-0.713-0.096c-0.971-0.876-3.182-2.95-3.182-2.95
				c-0.346-1.454-0.436-2.488-1.161-3.033c-0.73-0.525-2.68-1.389-1.71-2.555c1.259,0.25,1.601-0.376,2.62,1.513
				c1.014,1.895,1.745,2.811,2.957,3.779c1.214,0.974,1.507,1.511,2.475,1.655C180.664,54.733,180.742,54.744,180.839,54.765z
				 M174.187,39.444c0.191,0.072,0.38,0.139,0.572,0.221c0.442,0.295,0.819,0.777,0.361,0.703c-0.674-0.12-0.44,0.826,0,0.972
				c0.439,0.142,1.991,2.028,2.423,2.127c0.442,0.096,1.397,0.892,1.397,0.892l-1.552,0.619c-1.389-0.641-4.012-0.984-4.964-1.233
				c0.849-0.564,2.357-0.858,2.162-1.436c-0.195-0.591-0.583-0.69-0.972-1.46c-0.387-0.77-1.402-0.972-2.373-0.582
				c-0.968,0.387-3.476,0.914-3.476,0.914c-0.07,0.165-0.136,0.308-0.216,0.409c-2.947-1.36-5.958-2.646-9.05-3.83
				c0.407-0.889,0.65-1.798,0.744-2.726c3.423,0.658,7.379,1.725,11.67,3.209c-0.146,0.331-0.036,0.595,0.328,0.564
				c0.581-0.042,2.424,0.727,2.907,0.634C174.158,39.439,174.174,39.444,174.187,39.444z M172.839,37.259
				c0.555,0,1.047,0.487,1.14,0.787c-5.482-2.066-10.51-3.47-14.722-4.259c-0.05-0.75-0.214-1.487-0.475-2.219
				c0.461,0.232,0.841,0.439,1.061,0.602c0.966,0.677,1.213,0.919,1.874,0.627c0,0,1.379,0.532,2.053,1.063
				c0.678,0.533,0.678,0.119,1.279-0.436c1.073,0.382,2.118,0.339,1.245-0.434c-0.301-0.268-0.552-0.43-0.789-0.562
				c0.693,0.132,1.385,0.265,2.089,0.413l0.004,0.007c0.588,0.526,2.914,2.374,3.354,2.713
				C171.385,35.9,171.967,37.259,172.839,37.259z M161.576,31.759c0.981,0.149,1.975,0.312,2.983,0.493
				c-0.158,0.019-0.317,0.049-0.497,0.106C163.482,32.547,162.475,32.129,161.576,31.759z M165.36,26.589
				c0.293,0.099,0.564,0.221,0.827,0.357c-0.693-0.082-1.382-0.151-2.063-0.201C164.18,26.459,164.563,26.325,165.36,26.589z
				 M162.25,27.849c2.27,0.117,4.586,0.38,6.916,0.757c0.839,0.519,1.047,1.335-0.156,0.99c-1.355-0.389-3.109-0.152-4.075-0.727
				c-0.971-0.582-3.681-0.438-3.681-0.438l-1.94-0.602c0,0.701,0.724,1.134,1.787,1.134c1.074,0,3.984,1.501,4.272,2.185
				c-2.488-0.463-4.93-0.833-7.27-1.095c-0.424-0.759-0.978-1.503-1.639-2.23c1.587-0.076,3.214-0.082,4.857-0.02
				C161.542,27.824,161.85,27.837,162.25,27.849z M155.575,25.717c0.66,0.271,1.95-0.608,1.95-0.608
				c0.328,0.506-0.156,1.197,1.4,1.335c0.271,0.026,0.485,0.057,0.673,0.08c-1.471-0.006-2.919,0.033-4.347,0.141
				c-0.678-0.609-1.47-1.162-2.294-1.699C153.936,25.122,155.064,25.504,155.575,25.717z M144.177,20.773
				c0.006-0.006,0.016-0.006,0.029-0.012l0.66,0.102c-0.235,0.092-0.472,0.164-0.703,0.261c-1.447-0.404-2.983-0.726-4.562-1.014
				C141.27,20.228,143.186,21.038,144.177,20.773z M140.354,21.503c-0.126,0.093-0.12,0.206,0.139,0.388
				c0.727,0.475,0.81,1.497,1.589,1.207c0.776-0.294,2.485-0.236,3.261,0.156c0.622,0.307,2.221,0.609,3.337,0.816
				c2.662,1.179,4.906,2.594,6.523,4.216c0.492,0.5,0.908,1.008,1.266,1.517c-0.658-0.301-1.195-0.566-1.381-0.691
				c-0.578-0.387-1.404-0.784-0.824-0.049c0.308,0.374,1.547,1.019,2.799,1.641c0.006,0.026,0.02,0.046,0.034,0.056
				c0.026,0.115,0.078,0.208,0.148,0.29c0.513,1.016,0.783,2.055,0.804,3.119l-0.008,0.007c-0.013,0.075-0.006,0.151,0.008,0.212
				c-0.039,2.388-1.312,4.635-3.539,6.584c-0.164,0.047-0.308,0.146-0.393,0.308c-0.003,0.013-0.003,0.019-0.003,0.032
				c-1.151,0.947-2.517,1.817-4.077,2.6c-0.187-0.006-0.373,0.062-0.499,0.211c-0.013,0.014-0.021,0.033-0.03,0.047
				c-1.632,0.776-3.45,1.457-5.422,2.031c-0.11,0-0.213,0.037-0.307,0.085c-0.559,0.158-1.157,0.284-1.742,0.42
				c-0.232-0.492-0.817-0.784-1.351-1.012c-0.68-0.284-1.474-1.335-1.474-1.335c0-2.129-0.079-2.832-0.369-3.409
				c-0.288-0.582-0.177-1.867-0.177-1.867c-0.08-0.703-3.122,0.595-3.88,1.164c0,0-0.553-0.327-1.227-0.47
				c-0.685-0.142,0.238-0.482,1.929-1.077c0,0-0.621-0.082-1.206-0.368c-0.578-0.297-0.719-0.784-1.586-0.495
				c-0.875,0.301-3.185,0.707-3.185,0.707s0.205,1.027,0.156,1.704c-0.047,0.678-0.522,0.212-0.522,0.212s-1.649-0.582-1.963-1.063
				c0,0-3.422,1.308-4.005,1.596c-0.582,0.295-0.647,0.264,0.442,0.726c0,0-0.731,0.535-1.401,1.084c0,0-0.684,0.321-2.191,0.379
				c-1.507,0.042-1.26,0.969-1.354,1.741c-0.103,0.771,0.209,0.991,0.833,1.767c0,0,2.016-0.157,2.752,0.271
				c0.401,0.237,0.653,0.445,0.859,0.759c-3.334-0.403-6.49-1.078-9.31-2.025l0.161-0.138c-0.068,0.043-0.308,0.036-0.564,0
				c-0.271-0.093-0.542-0.189-0.809-0.291c-0.115-0.088-0.357-0.168-0.611-0.224c-0.544-0.212-1.058-0.44-1.57-0.668
				c-0.216-0.379,0.076-0.622,0.78-0.948l-0.615-1.706l-0.739-0.237c0,0-0.479,0.189-0.479,0.582c0,0.381-0.341,0.77-0.341,1.159
				c0,0.145-0.055,0.275-0.126,0.408c-0.214-0.113-0.433-0.218-0.632-0.337l0.3-0.177c0,0-0.466,0.105-0.707-0.082
				c-0.024-0.027-0.053-0.03-0.082-0.03c-0.165-0.096-0.331-0.189-0.49-0.297c0.419-0.287,0.971-0.445,0.971-0.445
				c0.334-0.287,1.121-0.723,0.324-0.977c-0.793-0.263-0.628-0.338-1.157-0.095c-0.541,0.238-1.184,0.452-1.184,0.452
				c-0.03,0.099-0.07,0.198-0.11,0.301c-0.339-0.245-0.651-0.496-0.953-0.746c-0.024-0.031-0.056-0.043-0.086-0.078
				c0.1-0.036,0.205-0.067,0.293-0.085c0.335-0.046,0.575-0.219,0.701-0.327c0.123-0.106,0.417-0.733,0.661-1.129
				c0.24-0.381-0.661-0.268-0.661-0.268s-0.9-0.353-1.04-0.602c-0.242-0.433-0.827-0.532-1.067-0.338
				c-0.245,0.189-0.725,0.432-0.969,0.533c-0.009,0.006-0.016,0.011-0.022,0.011c-1.103-1.487-1.661-3.037-1.661-4.625
				c0-2.098,0.958-4.115,2.851-6.007c3.581-3.584,10.154-6.209,17.772-7.292c0.191,0.079,0.408,0.056,0.585-0.07
				c2.312-0.308,4.714-0.47,7.159-0.47C133.395,20.454,137.008,20.832,140.354,21.503z M121.677,18.926
				c0.482-0.387,3.201,0.093,4.265-0.143c1.07-0.244,5.609-0.075,6.29-0.651c0.685,0.608,2.528,1.235,3.001,1.392
				c-1.81-0.176-3.65-0.297-5.544-0.297c-2.545,0-5.011,0.161-7.371,0.476c-0.242-0.264-0.492-0.5-0.746-0.726
				C121.601,18.964,121.653,18.944,121.677,18.926z M113.189,20.041c0.677,0.29,1.989-0.195,2.375-0.195
				c0.389,0,1.068-0.733,2.131-0.529c0.567,0.097,1.509,0.09,2.346,0.01c0.251,0.191,0.502,0.376,0.753,0.595
				c-1.944,0.312-3.8,0.727-5.55,1.229c-1.118-0.478-2.226-0.846-3.342-1.159C112.474,19.796,112.682,19.823,113.189,20.041z
				 M103.828,22.561c0,0,1.02-0.044,1.454-0.483c0.446-0.445,0.875-0.433,1.216-0.433c0.337,0,1.309-0.388,1.501-0.538
				c0.197-0.143,0.873-0.188,1.262-0.433c0.013-0.011,0.039-0.018,0.058-0.024c1.376,0.232,2.714,0.595,4.055,1.083
				c-1.54,0.522-2.974,1.104-4.299,1.761c-2.421-0.294-4.535-0.506-6.433-0.644C103.092,22.648,103.828,22.561,103.828,22.561z
				 M96.358,22.152c-0.009,0.018-0.043,0.057-0.046,0.072c-0.095,0.192-0.486,0.391-0.974,0.581
				c-0.01,0.014-0.019,0.014-0.034,0.019c-0.321,0.026-0.647,0.046-0.968,0.088C94.99,22.643,95.683,22.405,96.358,22.152z
				 M97.068,23.956c-0.3,0.132-0.746,0.264-1.385,0.351c-0.478,0.07-1.359,0.584-1.702,0.584c-0.335,0-0.968,0.383-1.117,0.437
				c-0.139,0.046-0.558,0.195-0.966,0.34c-0.409,0.152-0.409,0.152-0.409,0.152s-0.032,0.331,0.358,0.286
				c0.391-0.05,0.653,0.139,0.653,0.483c0.465-0.388,0.803-0.675,1.339-0.675c0.532,0,1.16,0.093,1.26-0.093
				c0.098-0.205,1.165-0.592,1.165-0.592s1.695-0.238,2.036-0.677c0,0,0.677-0.046,0.921-0.337c0.075-0.099,0.235-0.188,0.413-0.275
				c2.204,0.056,4.642,0.257,7.556,0.576c-1.122,0.67-2.13,1.39-3.016,2.15c-4.137-0.32-8.537-0.12-12.998,0.545
				c0.006-0.026,0-0.051,0.006-0.083c0.03-0.105-0.47,0.037-1.028,0.245c-2.183,0.35-4.37,0.809-6.552,1.372
				c1.871-1.361,3.974-2.619,6.251-3.779C92.345,24.37,94.609,24.052,97.068,23.956z M81.783,27.447
				c1.176-0.414,2.29-0.787,3.327-1.126c-1.621,1.033-3.105,2.111-4.437,3.252c-3.065,0.931-6.085,2.059-8.996,3.374
				C74.963,30.937,78.331,29.096,81.783,27.447z M61.397,40.28c0.07-0.07,0.119-0.146,0.152-0.227
				c0.032-0.013,0.055-0.013,0.073-0.032c4.935-3.453,10.636-6.277,16.596-8.357c-0.102,0.125-0.182,0.244-0.232,0.356
				c-0.036,0.103-0.096,0.208-0.153,0.32c-0.443,0.496-0.868,1.004-1.258,1.51c-0.396,0.327-0.799,0.52-1.073,0.401
				c-0.678-0.288-1.995-0.175-2.554,0.175c-0.563,0.351-0.625,0.465-0.625,0.465c1.665,1.06,2.419,0.872,2.55,1.58
				c-0.016,0.03-0.03,0.047-0.049,0.072c-6.617,2.539-13.17,5.816-19.227,9.925C57.158,44.331,59.091,42.259,61.397,40.28z
				 M50.936,49.294c1.163-1.159,2.35-2.275,3.551-3.376c-0.579,0.795-1.099,1.611-1.573,2.425c-1.632,1.203-3.192,2.492-4.719,3.826
				C49.095,51.205,49.996,50.229,50.936,49.294z M37.261,65.873c0.803-1.196,1.639-2.375,2.488-3.535
				c0.234,0.057,0.48-0.017,0.637-0.218c3.272-4.204,7.082-7.898,11.214-11.185c-1.21,2.782-1.843,5.633-1.865,8.509
				c-5.941,5.226-11.584,11.323-16.556,18.383C33.498,73.755,34.881,69.743,37.261,65.873z M49.814,61.006
				c0.164,2.393,0.756,4.741,1.734,7.048c-1.445,1.315-3.858,3.933-4.315,3.933c0.096,0-1.367,1.397-1.744,2.132
				c-0.538,1.045-0.832,1.351-1.265,2.279c-0.437,0.92-0.691,1.248-0.691,1.248l0.315,0.694c-0.935,1.303-2.293,3.103-2.388,3.879
				c-0.016,0.138-0.072,0.288-0.138,0.437c-1.592,2.207-3.112,4.48-4.547,6.81c-0.317,0.52-0.615,1.048-0.928,1.566
				c-1.77-3.562-2.683-7.236-2.736-10.986C38.078,72.708,43.786,66.404,49.814,61.006z M28.129,82.456
				c0.032-0.08,0.036-0.167,0.024-0.25c1.391-3.07,2.913-6.07,4.586-9.01c-0.568,2.142-0.868,4.317-0.868,6.505
				c-1.705,2.531-3.304,5.201-4.819,7.967C27.242,85.927,27.586,84.179,28.129,82.456z M31.972,81.813
				c0.29,3.581,1.338,7.09,3.132,10.494c-1.926,3.344-3.683,6.74-5.238,10.197c-1.929-3.863-2.921-7.85-2.966-11.908
				C28.471,87.519,30.167,84.601,31.972,81.813z M25.793,87.84c-0.073,0.82-0.127,1.638-0.127,2.456
				c-0.976,1.939-1.893,3.951-2.769,6.006C23.746,93.433,24.728,90.615,25.793,87.84z M22.343,101.014
				c1.051-2.819,2.204-5.53,3.448-8.145c0.358,3.797,1.504,7.514,3.452,11.115c-1.608,3.74-3.013,7.53-4.174,11.366
				c-1.873-3.953-2.816-8.007-2.816-12.147C22.251,102.468,22.283,101.742,22.343,101.014z M20.286,107.085
				c0.25-0.82,0.503-1.628,0.776-2.438c0.216,4.255,1.387,8.415,3.5,12.452c-2.15,7.537-3.427,15.221-3.816,22.893
				c-1.258-2.9-2.051-5.838-2.358-8.835c-0.024-1.041-0.073-2.072-0.073-3.113C18.316,120.939,18.997,113.926,20.286,107.085z"/>
			<path fill="#2B3990" d="M52.691,134.289C52.764,134.457,52.801,134.559,52.691,134.289L52.691,134.289z"/>
			<path fill="#2B3990" d="M73.95,115.299C73.827,115.495,73.718,115.672,73.95,115.299L73.95,115.299z"/>
			<path fill="#2B3990" d="M112.112,59.845C112.072,59.559,112.091,59.715,112.112,59.845L112.112,59.845z"/>
			<path fill="#2B3990" d="M72.792,143.714c0.229,0.047,1.081,0.087,1.354,0.142c0.27,0.057,0.247,0.146-0.046-0.338
				c-0.291-0.486-0.826-0.969-0.842-0.994c-0.024-0.033-1-0.165-1.15-0.264c-0.145-0.099-1.209-0.44-0.578,0.045
				c0.429,0.331,0.535,0.3,0.631,0.488C72.258,142.985,72.557,143.664,72.792,143.714z"/>
			<path fill="#2B3990" d="M86.415,144.785c-0.337-0.151-0.383-0.49-0.625-1.024c-0.246-0.536-0.536-0.73-1.115-0.675
				c-0.585,0.044-1.167-0.294-1.553-0.581c-0.389-0.295-0.866-0.233-1.361-0.245c-0.493-0.014-0.68-0.145-1.166-0.44
				c-0.48-0.288-0.48-0.242-1.051,0c0.037,0.098,0.231,0.784,0.473,0.972c0.244,0.193,0.288,0.726,0.529,1.159
				c0.248,0.439-0.043,0.439-0.338,0.439c0,0-1.014-0.145-1.166-0.238c-0.141-0.099-0.062,0.006-0.285-0.295
				c-0.148-0.192-0.683-0.095-0.866,0.178c0,0,0.293,0.575,0.486,0.82c0.198,0.244,0.331,0.407,0.766,0.22
				c0.439-0.201,0.683,0.143,0.972,0.431c0.293-0.1,0.534-0.244,1.681,0.268c0,0,0.044,0.344,0.384,0.784
				c0.335,0.438,0.401,0.212,1.034-0.031c0.632-0.244,0.779-0.439,1.897-0.145c0.338-0.531,1.744-0.244,2.085-0.151
				c0.341,0.1,0.418-0.06,0.386-0.482C87.552,145.33,86.76,144.928,86.415,144.785z"/>
			<path fill="#2B3990" d="M89.861,146.814c-0.314,0.024-0.334,0.05-0.245,0.245c0.099,0.187-0.089,0.82,0.538,0.675
				c0.624-0.146,0.53,0.164,0.873,0.212c0.339,0.05,1.166-0.499,1.166-0.499l-1.313-0.389
				C90.446,146.77,90.17,146.796,89.861,146.814z"/>
			<path fill="#2B3990" d="M106.349,94.293c-0.192-0.489-1.067-1.649-1.067-1.649l-0.291,0.752c-0.143,0.87,0.05,0.996,0.489,1.378
				c0.436,0.39,0.988,0.489,1.762,0.102c0.777-0.39,0.658-0.872,0.658-0.872C107.242,94.876,106.547,94.774,106.349,94.293z"/>
			<path fill="#2B3990" d="M119.039,90.684l-1.533-0.807c-0.586-0.384-0.895-0.698-2.428-0.047c0,0,0.678-0.825,0.774-1.306
				c0.101-0.49,0.465-1.348,1.245-2.031c0,0-1.95,0.933-2.487,1.322c-0.53,0.382-0.698,1.002-0.79,1.678
				c-0.098,0.675-0.529,1.191-0.529,1.191s-0.389,0.364-1.022,0.506c-0.631,0.143-0.974,0.974-0.992,1.973
				c1.261-0.194,2.247,0.213,2.636,0.641c0.392,0.443,4.582,1.923,4.582,1.923c0.179-1.335,0.85-1.629,1.243-2.112
				c0.389-0.483-0.047-1.063-0.34-1.653C119.105,91.385,119.039,90.684,119.039,90.684z"/>
			<path fill="#2B3990" d="M83.994,105.753C83.994,105.777,83.994,105.782,83.994,105.753L83.994,105.753z"/>
			<path fill="#2B3990" d="M100.143,58.11c-0.096-0.287-0.346-1.03-0.346-1.03c-0.82,0.059-0.868,0.059-0.915,0.545
				c-0.049,0.485-0.78,0.974-0.97,0.922c-0.195-0.05-1.454,1.096-1.454,1.096c0.142,0.264,0.29,0.159,0.725,0.072
				c0.433-0.09,0.677,0.047,0.677,0.047c-0.29,0.334-0.677,0.486-0.579,0.879c0.096,0.381,0.29,0.526,0.29,0.526
				c0.53-0.433,1.405-1.166,1.794-0.628c0.191,0.678,1.745,1.936,2.033,1.261c0.298-0.681-0.381-1.748-0.767-2.33
				C100.289,59.181,100.242,58.403,100.143,58.11z"/>
			<path fill="#2B3990" d="M98.396,48.945c-0.192,0.149-0.535,0.294-1.068,0.393c-0.531,0.1-0.727,0.288-0.439,0.384
				c0.295,0.092,0.439,0.436,0.489,0.631c0.048,0.201,0.415,0.374,1.091,0.369c0.688-0.006,0.218-0.664,0.218-0.664
				s0.161-0.662,0.29-0.964C99.321,48.317,98.591,48.799,98.396,48.945z"/>
			<path fill="#2B3990" d="M112.315,43.906c0.588,0.532,1.679,0.916,1.679,0.916c0.096-0.384,1.038-0.427,0.847-0.829
				c-0.193-0.381,0.49-0.958,0.49-0.958s0.816,1.114,1.4,0.619c0.578-0.475,1.83-0.631,2.073-0.926
				c0.243-0.288,2.627-1.59,3.019-1.691c0.389-0.089,3.651-2.032,3.651-2.032c-1.714-0.443-1.856-0.489-2.151-0.92
				c-0.291-0.439-1.567-0.633-1.567-0.633c-0.998,0.238-2.412,0.437-2.697,0.193c-0.292-0.245-0.955,0.039-0.955,0.039
				c-0.144,0.919-0.889,1.897-1.084,2.091c-0.193,0.202-0.244,0.387,0,0.683c0.247,0.291,0,1.11,0,1.11
				c-1.748,0.641-3.586,1.612-3.882,1.467C112.848,42.887,111.735,43.367,112.315,43.906z"/>
			<path fill="#2B3990" d="M104.263,43.757c-0.192-0.34-0.678-0.291-0.678-0.291c-0.093,0.684-0.335,1.068-0.777,1.107
				c-0.432,0.053-0.964,0.594-1.11,1.026c-0.146,0.439-1.749,1.698-1.019,1.698c0.721,0,1.754-0.376,1.754-0.376
				c0.198-0.344,0.331-0.883,1.008-1.129c0.678-0.237,1.709-1.354,1.709-1.354C104.414,44.295,104.458,44.094,104.263,43.757z"/>
			<path fill="#2B3990" d="M111.123,40.635l0.905,0.155c0.089-0.473,0.376-1.126,0.568-1.321
				C111.395,40.079,111.123,40.635,111.123,40.635z"/>
			<path fill="#2B3990" d="M107.562,38.229c0.681-0.049,1.233,0,1.233,0c-0.564-0.512-0.122-0.632-0.7-0.393
				C107.513,38.086,106.88,38.279,107.562,38.229z"/>
			<path fill="#2B3990" d="M110.813,39.547c-0.442,0.595-0.34,0.869-0.099,0.575c0.246-0.294,0.581-0.488,0.969-0.589
				c0.389-0.093,0.096-0.43,0.096-0.872c0-0.432,0.293-0.287-0.113-0.661c0,0-0.706,0.424-1.387,0.618
				C109.597,38.805,111.015,39.27,110.813,39.547z"/>
			<path fill="#2B3990" d="M103.34,37.115c0.053,0.287-0.335,0.632,0.199,0.482c0.531-0.144,0.966-0.099,1.21,0
				c0.241,0.095,1.407,0,1.407,0c0.39-0.036,0.39-0.237,0.096-0.337c-0.294-0.096-0.605-0.182-0.794-0.429
				c-1.044,0.089-1.777-0.11-1.787-0.073C103.663,36.782,103.293,36.821,103.34,37.115z"/>
			<path fill="#2B3990" d="M113.622,41.288c0.384-0.176,2.134-0.498,2.376-0.396c0.247,0.1,0.476-0.107,0.476-0.107
				c-0.142-0.475,0.057-0.705,0.301-1.008c0.244-0.288,0.557-1.698,0.557-1.698c-1.184,0.201-1.576,0.007-1.913,0.439
				c-0.341,0.438-1.05,0.684-1.263,0.777c-0.211,0.102-0.387,0.582-0.533,1.022C113.482,40.75,112.412,41.821,113.622,41.288z"/>
			<path fill="#2B3990" d="M116.475,40.784C116.475,40.784,116.618,41.273,116.475,40.784L116.475,40.784z"/>
			<path fill="#2B3990" d="M148.053,38.955c0.684,0.095,1.965,0.32,2.482-0.105c0.278,0.776-0.462,0.784,0.314,0.926
				c0.774,0.144,1.917-0.142,1.043-0.674c-0.878-0.539-2.048-1.724-2.048-1.724s-2.558,0.075-2.792,0.389
				C146.818,38.078,147.376,38.864,148.053,38.955z"/>
			<path fill="#2B3990" d="M151.744,37.79c0.575,0.244,0.968,0.439,0.968,0.439s0.251-0.688-0.542-0.776
				C151.238,37.36,150.926,37.453,151.744,37.79z"/>
			<path fill="#2B3990" d="M147.107,36.978c0.826-0.29,2.086-0.402,2.432-0.301l-0.997-0.727c0,0,0.003,0.01,0.003,0.019
				c0,0,0-0.009-0.003-0.019c-0.191-0.822-0.584-0.396-1.311,0C146.506,36.343,146.285,37.267,147.107,36.978z"/>
			<path fill="#2B3990" d="M196.559,87.506c0.387,0.239,1.11,0.873,1.11,0.873s0.181,0.693,0.099,1.113
				c-0.075,0.42-0.24,0.675,0.199,0.872c0.435,0.192,1.259,1.114,1.398,1.499c0.152,0.399,0.5,1.996,0.84,1.229
				c0.336-0.773,0.745-0.86,0.314-1.399c-0.446-0.534-0.858-0.602-1.103-1.278c-0.241-0.683-0.776-0.878-0.971-1.118
				c-0.191-0.235-0.822-0.823-0.872-1.407c-0.046-0.576-0.532-0.921-0.532-0.921c-0.148-0.34-0.726-1.41-0.63-0.87
				C196.506,86.629,196.169,87.264,196.559,87.506z"/>
			<path fill="#2B3990" d="M194.229,95.017c-0.314-0.625-0.389-0.244-0.681,0.1c-0.295,0.346,0.341,0.288,0.635,0.483
				C194.472,95.79,194.229,95.017,194.229,95.017z"/>
			<path fill="#2B3990" d="M168.283,77.465c0.436,0.386,0.141,0.479,1.192,0.181c0,0-0.073,1.414-0.318,1.896
				c-0.242,0.492-0.196,0.591,0.632,1.13c0,0,1.108-0.539,1.305-0.978c0.195-0.43,0.969-0.872,1.457-1.064
				c0.485-0.202-0.191-1.266-0.436-1.554c-0.242-0.288-0.63-1.157-0.777-1.556c0,0-0.441-0.473,0-1.207c0,0-1.163-1.116-1.598-0.969
				c-0.44,0.142-0.826,0.285-0.654,0.969c0,0-0.058-0.02-0.62-0.308c-0.565-0.3,0.253,1.136,0.39,1.781c0,0-0.235,0.376-0.772,0.614
				C167.552,76.636,167.844,77.075,168.283,77.465z"/>
			<path fill="#2B3990" d="M141.895,24.065c0.498-0.039,0.829,0,0.053-0.287c-0.776-0.293-1.52-0.724-1.344-0.293
				C140.794,23.915,141.406,24.107,141.895,24.065z"/>
			<path fill="#2B3990" d="M141.56,24.457c0.146,0.435,0.902,0.49,1.453,0.29c0.554-0.206-0.099-0.359-0.533-0.439
				C141.949,24.214,141.415,24.021,141.56,24.457z"/>
			<path fill="#2B3990" d="M141.386,25.043c0,0-0.166,0.136-0.558,0.43c-0.389,0.288,0.687,0.288,1.511,0.195
				C143.16,25.575,142.06,25.131,141.386,25.043z"/>
		</g>
	</g>
	<rect x="14.859" y="196.472" fill="#2B3990" width="227.419" height="43.172"/>
	<rect x="14.859" y="190.53" fill="#2B3990" width="227.419" height="3.093"/>
	<g>
		<ellipse cx="22.437" cy="162.552" rx="2.435" ry="1.55"/>
		<ellipse cx="58.035" cy="162.552" rx="2.435" ry="1.55"/>
		<path d="M58.294,168.743l-3.234-5.433l-1.954-5.862c-0.809-1.954-2.224-2.358-2.224-2.358c-4.38-1.011-10.646-1.011-10.646-1.011
			s-6.266,0-10.646,1.011c0,0-1.415,0.404-2.224,2.358l-1.954,5.862l-3.234,5.433c0,0-0.944,1.574-0.944,4v12.735h7.681v-2.291
			h11.32h11.32v2.291h7.681v-12.735C59.237,170.317,58.294,168.743,58.294,168.743z"/>
		<ellipse fill="#FFFFFF" cx="26.759" cy="170.81" rx="3.1" ry="2.068"/>
		<ellipse fill="#FFFFFF" cx="53.712" cy="170.81" rx="3.099" ry="2.068"/>
		<path fill="#FFFFFF" d="M47.513,177.573h-7.277h-7.277c0,0-0.741,2.068,0.876,3.213h6.401h6.402
			C48.254,179.641,47.513,177.573,47.513,177.573z"/>
		<path fill="#FFFFFF" d="M46.637,173.412h-6.402h-6.401c-1.617,1.145-0.876,3.213-0.876,3.213h7.277h7.277
			C47.513,176.625,48.254,174.558,46.637,173.412z"/>
		<path fill="#FFFFFF" d="M52.162,158.458c-0.269-1.146-2.156-1.886-2.156-1.886c-2.762-1.145-9.77-1.213-9.77-1.213
			s-7.008,0.067-9.77,1.213c0,0-1.887,0.741-2.156,1.886l-1.55,5.349h13.476h13.476L52.162,158.458z"/>
	</g>
	<path d="M215.632,168.601c-1.872-1.203-5.744-3.652-6.542-3.851c-0.654-0.163-5.989,0.63-10.3,1.387
		c-1.172-1.134-4.104-3.96-4.422-4.172c-0.398-0.265-2.255-0.663-2.918-0.133c-0.509,0.407-0.861,4.788-0.998,6.811
		c-2.723,1.37-6.337,3.266-6.695,3.534c-0.315,0.236-0.489,1.127-0.579,1.812c-4.98,1.221-8.174,2.167-8.174,2.167l-0.905,4.297
		l50.122-0.79c2.579-2.238,13.593-11.793,14.179-12.261C238.991,166.93,229.81,167.299,215.632,168.601z M201.133,167.473
		c3.131-0.833,7.32-1.649,7.825-1.397c0.487,0.243,2.114,1.727,3.305,2.843c-0.695,0.067-1.397,0.136-2.112,0.208
		c-3.02,0.302-6.058,0.715-9.019,1.189V167.473z M197.685,168.728c0.147-0.22,1.015-0.552,2.209-0.908l-0.182,2.728
		c-0.996,0.167-1.981,0.341-2.952,0.519C197.076,170.101,197.438,169.099,197.685,168.728z"/>
	<g>
		<path fill="#FFFFFF" d="M24.417,230.651c0.056,0.674,0.207,1.246,0.453,1.717s0.562,0.854,0.948,1.148s0.832,0.509,1.338,0.643
			c0.505,0.134,1.046,0.2,1.622,0.2c0.674,0,1.257-0.085,1.749-0.253c0.492-0.169,0.892-0.396,1.201-0.685
			c0.309-0.288,0.538-0.622,0.685-1.001s0.221-0.779,0.221-1.201c0-0.59-0.134-1.066-0.4-1.433
			c-0.267-0.364-0.615-0.663-1.043-0.895c-0.429-0.232-0.92-0.418-1.475-0.559c-0.555-0.141-1.124-0.277-1.707-0.411
			c-0.583-0.133-1.152-0.291-1.707-0.474s-1.046-0.429-1.475-0.737c-0.429-0.309-0.776-0.706-1.043-1.19
			c-0.267-0.484-0.4-1.099-0.4-1.844c0-0.52,0.108-1.024,0.326-1.517c0.218-0.491,0.541-0.927,0.969-1.306
			c0.428-0.38,0.965-0.682,1.612-0.906c0.646-0.225,1.39-0.337,2.233-0.337c0.856,0,1.604,0.119,2.244,0.357
			c0.639,0.239,1.169,0.566,1.591,0.98c0.421,0.414,0.737,0.895,0.948,1.442c0.211,0.548,0.316,1.131,0.316,1.749h-1.369
			c0-0.576-0.102-1.074-0.306-1.496c-0.204-0.421-0.481-0.765-0.832-1.032c-0.351-0.267-0.751-0.463-1.201-0.59
			c-0.45-0.126-0.913-0.189-1.391-0.189c-0.73,0-1.345,0.102-1.843,0.306c-0.499,0.203-0.896,0.467-1.19,0.79
			s-0.499,0.681-0.611,1.074c-0.113,0.394-0.134,0.787-0.063,1.18c0.084,0.492,0.281,0.885,0.59,1.18
			c0.309,0.295,0.688,0.537,1.138,0.727c0.449,0.19,0.944,0.345,1.485,0.464s1.092,0.246,1.654,0.379
			c0.562,0.134,1.106,0.292,1.633,0.475s0.994,0.429,1.401,0.737s0.734,0.705,0.979,1.19c0.246,0.484,0.369,1.092,0.369,1.822
			c0,1.404-0.484,2.493-1.454,3.265c-0.969,0.772-2.332,1.159-4.087,1.159c-0.787,0-1.517-0.103-2.191-0.306
			s-1.257-0.513-1.749-0.927s-0.875-0.927-1.148-1.538c-0.274-0.611-0.411-1.33-0.411-2.159H24.417z"/>
		<path fill="#FFFFFF" d="M47.169,235.18v-15.168h5.541c0.983,0,1.794,0.112,2.433,0.337c0.639,0.225,1.145,0.534,1.517,0.927
			c0.372,0.394,0.632,0.847,0.78,1.358c0.147,0.514,0.221,1.051,0.221,1.612c0,0.843-0.172,1.538-0.516,2.085
			c-0.344,0.548-0.79,0.98-1.338,1.296c-0.548,0.316-1.169,0.537-1.864,0.664c-0.695,0.126-1.394,0.189-2.096,0.189h-3.245v6.699
			H47.169z M51.888,227.259c0.674,0,1.278-0.042,1.812-0.127c0.534-0.084,0.987-0.242,1.359-0.474s0.66-0.548,0.864-0.948
			s0.306-0.923,0.306-1.569c0-0.955-0.313-1.679-0.938-2.17c-0.625-0.491-1.619-0.737-2.981-0.737h-3.708v6.025H51.888z"/>
		<path fill="#FFFFFF" d="M70.638,235.18v-15.168h10.091v1.222H72.07v5.478h7.816v1.222H72.07v6.025h8.869v1.222H70.638z"/>
		<path fill="#FFFFFF" d="M104.808,224.415c-0.295-1.292-0.843-2.212-1.643-2.76c-0.801-0.548-1.847-0.821-3.139-0.821
			c-0.913,0-1.7,0.183-2.359,0.548c-0.661,0.365-1.205,0.856-1.633,1.475c-0.429,0.618-0.745,1.331-0.948,2.139
			s-0.305,1.66-0.305,2.56c0,0.843,0.087,1.671,0.263,2.485c0.176,0.815,0.467,1.542,0.875,2.181
			c0.407,0.64,0.955,1.155,1.643,1.549c0.688,0.393,1.552,0.59,2.591,0.59c0.646,0,1.236-0.105,1.77-0.316s1.001-0.502,1.401-0.874
			c0.4-0.372,0.737-0.812,1.011-1.316c0.274-0.506,0.481-1.061,0.622-1.665h1.496c-0.168,0.73-0.414,1.422-0.737,2.075
			s-0.748,1.226-1.274,1.717c-0.527,0.492-1.166,0.882-1.917,1.17c-0.751,0.287-1.633,0.432-2.644,0.432
			c-1.166,0-2.163-0.215-2.992-0.643c-0.829-0.429-1.506-1.008-2.033-1.738c-0.527-0.729-0.91-1.576-1.148-2.538
			s-0.358-1.984-0.358-3.065c0-1.446,0.179-2.676,0.537-3.687c0.358-1.012,0.854-1.837,1.485-2.476s1.376-1.103,2.233-1.391
			c0.857-0.288,1.791-0.432,2.802-0.432c0.772,0,1.492,0.102,2.159,0.306c0.667,0.203,1.257,0.509,1.77,0.916
			s0.934,0.909,1.264,1.506c0.33,0.598,0.558,1.289,0.685,2.075H104.808z"/>
		<path fill="#FFFFFF" d="M120.292,235.18v-15.168h1.433v15.168H120.292z"/>
		<path fill="#FFFFFF" d="M134.787,235.18l5.962-15.168h1.622l5.814,15.168h-1.475l-1.749-4.761h-6.91l-1.79,4.761H134.787z
			 M138.537,229.197h5.94l-2.971-7.963L138.537,229.197z"/>
		<path fill="#FFFFFF" d="M160.762,235.18v-15.168h1.433v13.946h8.132v1.222H160.762z"/>
		<path fill="#FFFFFF" d="M183.515,235.18v-15.168h1.433v15.168H183.515z"/>
		<path fill="#FFFFFF" d="M199.988,230.651c0.057,0.674,0.207,1.246,0.453,1.717s0.562,0.854,0.948,1.148
			c0.386,0.295,0.832,0.509,1.338,0.643s1.046,0.2,1.622,0.2c0.674,0,1.257-0.085,1.749-0.253c0.491-0.169,0.892-0.396,1.2-0.685
			s0.537-0.622,0.685-1.001s0.222-0.779,0.222-1.201c0-0.59-0.134-1.066-0.4-1.433c-0.267-0.364-0.614-0.663-1.043-0.895
			c-0.429-0.232-0.92-0.418-1.475-0.559s-1.124-0.277-1.706-0.411c-0.583-0.133-1.152-0.291-1.707-0.474s-1.046-0.429-1.475-0.737
			s-0.776-0.706-1.043-1.19s-0.4-1.099-0.4-1.844c0-0.52,0.109-1.024,0.327-1.517c0.218-0.491,0.54-0.927,0.969-1.306
			c0.429-0.38,0.966-0.682,1.611-0.906c0.646-0.225,1.391-0.337,2.233-0.337c0.856,0,1.604,0.119,2.244,0.357
			c0.639,0.239,1.169,0.566,1.59,0.98c0.422,0.414,0.737,0.895,0.948,1.442s0.316,1.131,0.316,1.749h-1.37
			c0-0.576-0.102-1.074-0.305-1.496c-0.204-0.421-0.481-0.765-0.832-1.032c-0.352-0.267-0.752-0.463-1.201-0.59
			c-0.45-0.126-0.913-0.189-1.391-0.189c-0.73,0-1.345,0.102-1.844,0.306c-0.498,0.203-0.895,0.467-1.189,0.79
			s-0.499,0.681-0.611,1.074s-0.134,0.787-0.063,1.18c0.085,0.492,0.281,0.885,0.59,1.18c0.31,0.295,0.688,0.537,1.138,0.727
			c0.449,0.19,0.944,0.345,1.485,0.464s1.092,0.246,1.654,0.379c0.562,0.134,1.105,0.292,1.633,0.475
			c0.526,0.183,0.993,0.429,1.4,0.737s0.733,0.705,0.979,1.19c0.246,0.484,0.369,1.092,0.369,1.822c0,1.404-0.484,2.493-1.454,3.265
			c-0.969,0.772-2.331,1.159-4.087,1.159c-0.786,0-1.517-0.103-2.19-0.306c-0.675-0.203-1.258-0.513-1.749-0.927
			c-0.492-0.414-0.874-0.927-1.148-1.538c-0.273-0.611-0.41-1.33-0.41-2.159H199.988z"/>
		<path fill="#FFFFFF" d="M221.435,220.012h11.039v1.222h-4.803v13.946h-1.433v-13.946h-4.804V220.012z"/>
	</g>
	<g>
		<path fill="#FFFFFF" d="M31.583,209.175v-2.701h9.72c-0.015,1.092-0.025,2.049-0.032,2.871c-0.007,0.823-0.05,1.535-0.127,2.138
			c-0.078,0.603-0.224,1.106-0.436,1.511c-0.213,0.403-0.528,0.73-0.947,0.978c-0.418,0.249-0.971,0.423-1.659,0.521
			c-0.688,0.099-1.549,0.148-2.584,0.148c-0.454,0-0.911-0.003-1.372-0.01c-0.461-0.008-0.911-0.011-1.351-0.011h-1.319
			c-1.574,0-2.911-0.043-4.009-0.128c-1.099-0.085-1.996-0.326-2.69-0.724c-0.695-0.396-1.198-0.999-1.51-1.808
			c-0.312-0.808-0.468-1.936-0.468-3.382c0-0.439,0.014-1.031,0.042-1.775c0.028-0.745,0.071-1.635,0.127-2.67
			c0.014-0.453,0.113-0.893,0.298-1.318c0.184-0.426,0.422-0.801,0.712-1.127s0.624-0.6,1-0.819c0.375-0.22,0.776-0.357,1.202-0.415
			c0.851-0.113,1.702-0.191,2.552-0.233c0.851-0.043,1.702-0.063,2.552-0.063c1.148,0,2.18,0,3.095,0s1.726,0.028,2.436,0.085
			c0.708,0.057,1.318,0.152,1.829,0.287c0.51,0.135,0.936,0.337,1.276,0.605c0.326,0.256,0.582,0.525,0.766,0.809
			c0.184,0.284,0.319,0.589,0.404,0.915s0.138,0.68,0.16,1.063c0.021,0.383,0.032,0.794,0.032,1.233h-4.232
			c-0.029-0.369-0.085-0.656-0.17-0.861c-0.085-0.206-0.237-0.362-0.457-0.469c-0.22-0.105-0.525-0.173-0.915-0.201
			c-0.39-0.028-0.89-0.043-1.5-0.043h-1.085c-0.383,0-0.759-0.003-1.127-0.011c-0.369-0.007-0.709-0.011-1.021-0.011
			c-0.709,0-1.294,0.011-1.755,0.032c-0.461,0.021-0.833,0.131-1.117,0.33c-0.284,0.198-0.482,0.521-0.596,0.967
			c-0.113,0.447-0.17,1.096-0.17,1.946c0,0.78,0.018,1.433,0.053,1.957c0.035,0.524,0.117,0.95,0.245,1.276
			c0.127,0.326,0.319,0.57,0.574,0.733s0.599,0.28,1.032,0.352c0.432,0.07,0.971,0.105,1.616,0.105c0.645,0,1.428,0,2.35,0
			c0.681,0,1.276,0,1.787,0c0.511,0,0.936-0.049,1.276-0.148c0.34-0.099,0.592-0.266,0.755-0.5c0.163-0.233,0.245-0.585,0.245-1.053
			c0-0.085-0.003-0.148-0.011-0.191c-0.007-0.042-0.01-0.106-0.01-0.191H31.583z"/>
		<path fill="#FFFFFF" d="M47.599,200.306v10.656h9.762v3.53H43.238v-14.187H47.599z"/>
		<path fill="#FFFFFF" d="M58.127,208.75c0-1.347,0.018-2.506,0.053-3.477c0.035-0.972,0.17-1.79,0.404-2.457
			c0.234-0.666,0.603-1.194,1.106-1.585c0.503-0.39,1.223-0.67,2.159-0.84c0.638-0.113,1.797-0.181,3.478-0.202
			c1.68-0.021,3.882-0.031,6.604-0.031c0.894,0,1.666,0.077,2.318,0.233s1.202,0.4,1.648,0.733c0.447,0.334,0.798,0.77,1.053,1.309
			c0.255,0.539,0.433,1.191,0.532,1.957c0.057,0.396,0.088,0.914,0.096,1.553c0.007,0.638,0.011,1.382,0.011,2.232
			c0,1.035-0.064,1.911-0.191,2.627c-0.127,0.717-0.348,1.315-0.659,1.798c-0.312,0.481-0.727,0.857-1.244,1.127
			c-0.518,0.27-1.167,0.472-1.946,0.606c-0.78,0.135-1.698,0.22-2.754,0.255c-1.057,0.035-2.287,0.053-3.69,0.053
			c-1.588,0-2.949-0.046-4.083-0.138c-1.135-0.092-2.063-0.333-2.786-0.724c-0.723-0.39-1.255-0.978-1.595-1.765
			S58.127,210.14,58.127,208.75z M62.529,206.794c0,0.723,0.011,1.333,0.032,1.829c0.021,0.496,0.078,0.907,0.17,1.233
			c0.092,0.326,0.234,0.574,0.425,0.744c0.191,0.171,0.46,0.298,0.808,0.383c0.348,0.085,0.78,0.136,1.297,0.149
			s1.145,0.021,1.883,0.021c1.474,0,2.623-0.018,3.445-0.054c0.822-0.035,1.428-0.173,1.818-0.415c0.39-0.24,0.627-0.634,0.713-1.18
			c0.085-0.546,0.127-1.322,0.127-2.329c0-0.822-0.039-1.471-0.117-1.946c-0.078-0.475-0.244-0.829-0.5-1.063
			s-0.631-0.379-1.127-0.437c-0.497-0.056-1.156-0.085-1.978-0.085c-1.489,0-2.694,0-3.616,0c-0.922,0-1.631,0.089-2.127,0.267
			c-0.497,0.177-0.83,0.485-1,0.925C62.614,205.276,62.529,205.928,62.529,206.794z"/>
		<path fill="#FFFFFF" d="M79.523,214.471v-14.165h13.378c1.503,0,2.612,0.28,3.329,0.84c0.716,0.561,1.074,1.5,1.074,2.818
			c0,0.582-0.05,1.057-0.149,1.425c-0.1,0.369-0.252,0.674-0.458,0.915s-0.464,0.433-0.776,0.574s-0.688,0.27-1.127,0.383
			c0.468,0.071,0.893,0.156,1.276,0.255c0.383,0.1,0.705,0.259,0.968,0.479c0.262,0.221,0.464,0.521,0.606,0.904
			c0.142,0.383,0.212,0.887,0.212,1.51c0,0.766-0.089,1.408-0.266,1.925c-0.178,0.519-0.458,0.937-0.84,1.255
			c-0.383,0.319-0.875,0.546-1.478,0.681c-0.603,0.135-1.322,0.202-2.159,0.202H79.523z M83.798,205.878H91.2
			c0.567,0,1.003-0.077,1.308-0.233c0.305-0.156,0.458-0.504,0.458-1.043c0-0.794-0.418-1.19-1.255-1.19h-7.913V205.878z
			 M83.798,211.281h7.806c0.283,0,0.542-0.014,0.776-0.042c0.234-0.028,0.436-0.089,0.606-0.181c0.17-0.093,0.301-0.23,0.394-0.415
			c0.092-0.185,0.138-0.433,0.138-0.744c0-0.496-0.149-0.822-0.447-0.979s-0.766-0.234-1.404-0.234h-7.87V211.281z"/>
		<path fill="#FFFFFF" d="M114.234,211.919h-9.167l-1.404,2.573h-4.807l7.912-14.187h5.828l7.742,14.187h-4.764L114.234,211.919z
			 M112.66,208.984l-3.02-5.615l-3.063,5.615H112.66z"/>
		<path fill="#FFFFFF" d="M126.252,200.306v10.656h9.763v3.53h-14.124v-14.187H126.252z"/>
		<path fill="#FFFFFF" d="M142.054,214.493v-14.208h11.507c1.021,0,1.893,0.061,2.616,0.181c0.723,0.121,1.332,0.408,1.829,0.861
			c0.496,0.454,0.829,1.025,0.999,1.713c0.171,0.688,0.256,1.521,0.256,2.499c0,1.049-0.078,1.921-0.234,2.616
			c-0.156,0.694-0.436,1.251-0.84,1.669c-0.404,0.419-0.946,0.717-1.627,0.894c-0.681,0.178-1.546,0.266-2.595,0.266
			c-0.156,0-0.295-0.003-0.415-0.011c-0.121-0.007-0.259-0.01-0.415-0.01h-6.721v3.53H142.054z M146.414,207.516h6.636
			c0.681,0,1.162-0.131,1.446-0.394c0.283-0.262,0.426-0.747,0.426-1.457c0-0.681-0.128-1.173-0.383-1.478
			c-0.256-0.305-0.752-0.458-1.489-0.458h-6.636V207.516z"/>
		<path fill="#FFFFFF" d="M172.788,211.919h-9.167l-1.404,2.573h-4.807l7.912-14.187h5.828l7.742,14.187h-4.765L172.788,211.919z
			 M171.214,208.984l-3.021-5.615l-3.062,5.615H171.214z"/>
		<path fill="#FFFFFF" d="M184.826,210.835v3.658h-4.36v-14.187h13.187c0.879,0,1.62,0.082,2.223,0.244
			c0.603,0.164,1.092,0.423,1.468,0.776c0.375,0.354,0.645,0.815,0.809,1.383c0.162,0.567,0.244,1.263,0.244,2.084
			c0,0.852-0.067,1.524-0.202,2.021c-0.135,0.496-0.333,0.886-0.596,1.169c-0.263,0.284-0.585,0.497-0.968,0.639
			s-0.815,0.283-1.297,0.425c0.396,0.086,0.772,0.16,1.127,0.224s0.663,0.188,0.926,0.372c0.262,0.185,0.468,0.45,0.616,0.798
			c0.149,0.348,0.224,0.848,0.224,1.499v2.553h-4.36v-1.872c0-0.609-0.124-1.06-0.372-1.351c-0.248-0.29-0.748-0.436-1.5-0.436
			H184.826z M184.826,207.389h6.486c0.113,0,0.206,0.003,0.277,0.01c0.07,0.008,0.162,0.011,0.276,0.011
			c0.51,0,0.91-0.028,1.201-0.085s0.511-0.159,0.659-0.309c0.149-0.148,0.241-0.351,0.277-0.605
			c0.035-0.256,0.053-0.581,0.053-0.979c0-0.383-0.039-0.684-0.117-0.904c-0.078-0.22-0.209-0.39-0.394-0.51
			c-0.185-0.121-0.433-0.195-0.744-0.224c-0.312-0.028-0.702-0.043-1.17-0.043h-6.806V207.389z"/>
		<path fill="#FFFFFF" d="M209.775,203.858v10.635h-4.36v-10.635h-6.359v-3.552h16.973v3.552H209.775z"/>
		<path fill="#FFFFFF" d="M229.982,204.645c-0.015-0.326-0.071-0.585-0.171-0.776c-0.099-0.191-0.272-0.333-0.521-0.426
			c-0.248-0.092-0.574-0.151-0.979-0.181c-0.404-0.028-0.926-0.042-1.563-0.042c-0.113,0-0.206,0-0.276,0
			c-0.071,0-0.163,0.007-0.276,0.021c-0.922,0.042-1.694,0.063-2.318,0.063s-1.128,0.032-1.511,0.096s-0.659,0.181-0.829,0.351
			c-0.17,0.171-0.255,0.454-0.255,0.851c0,0.355,0.127,0.621,0.383,0.798c0.255,0.178,0.609,0.273,1.063,0.287
			c0.638,0.015,1.244,0.028,1.818,0.043c0.574,0.014,1.109,0.021,1.605,0.021c0.298,0,0.606-0.004,0.926-0.011
			c0.318-0.007,0.62-0.011,0.903-0.011c1.177,0,2.198,0.031,3.063,0.096c0.864,0.063,1.577,0.237,2.137,0.521
			c0.561,0.284,0.976,0.717,1.245,1.298c0.269,0.581,0.403,1.396,0.403,2.446c0,0.737-0.071,1.361-0.212,1.871
			c-0.143,0.511-0.365,0.933-0.671,1.266c-0.305,0.333-0.69,0.593-1.159,0.776c-0.468,0.185-1.027,0.312-1.68,0.383
			c-0.383,0.043-1.12,0.093-2.212,0.149c-1.092,0.056-2.488,0.085-4.19,0.085c-1.673,0-3.038-0.05-4.094-0.149
			c-1.057-0.099-1.826-0.318-2.308-0.659c-0.341-0.241-0.593-0.5-0.756-0.776s-0.276-0.57-0.34-0.883
			c-0.063-0.312-0.096-0.648-0.096-1.01c0-0.362,0-0.755,0-1.181h4.275c0,0.156,0,0.319,0,0.489s0.035,0.322,0.105,0.457
			c0.071,0.135,0.199,0.255,0.383,0.361c0.185,0.106,0.469,0.174,0.852,0.202c0.184,0.015,0.527,0.029,1.031,0.043
			c0.503,0.014,1.138,0.021,1.903,0.021c0.992,0,1.805-0.008,2.436-0.021s1.124-0.063,1.479-0.149
			c0.354-0.085,0.596-0.212,0.723-0.383c0.128-0.17,0.191-0.418,0.191-0.744c0-0.312-0.063-0.557-0.191-0.733
			c-0.127-0.178-0.312-0.305-0.553-0.383s-0.528-0.124-0.861-0.139c-0.333-0.014-0.698-0.021-1.096-0.021
			c-1.39-0.014-2.623-0.018-3.7-0.011c-1.078,0.008-2.014-0.018-2.808-0.074c-0.795-0.057-1.465-0.155-2.011-0.298
			c-0.546-0.142-0.985-0.368-1.318-0.681c-0.333-0.312-0.574-0.723-0.723-1.233c-0.149-0.511-0.224-1.155-0.224-1.936
			c0-0.694,0.061-1.297,0.181-1.808s0.322-0.939,0.606-1.287c0.283-0.347,0.655-0.616,1.116-0.808s1.032-0.33,1.712-0.415
			c0.454-0.057,1.188-0.113,2.202-0.17c1.014-0.057,2.286-0.085,3.817-0.085c0.809,0,1.535,0.003,2.181,0.01
			c0.645,0.008,1.219,0.04,1.723,0.096c0.503,0.058,0.946,0.139,1.329,0.245s0.716,0.266,1,0.479
			c0.312,0.227,0.556,0.468,0.733,0.723c0.177,0.256,0.309,0.532,0.394,0.83s0.142,0.62,0.17,0.968s0.043,0.727,0.043,1.138H229.982
			z"/>
	</g>
	<g>
		<path fill="#2B3990" stroke="#FFFFFF" stroke-linecap="square" stroke-miterlimit="10" d="M117.433,36.847v-3.361h12.095
			c-0.018,1.359-0.031,2.55-0.04,3.573c-0.009,1.023-0.062,1.91-0.159,2.66c-0.097,0.75-0.278,1.376-0.542,1.879
			s-0.658,0.909-1.178,1.217c-0.521,0.309-1.209,0.525-2.064,0.648c-0.856,0.123-1.928,0.185-3.216,0.185
			c-0.565,0-1.134-0.004-1.707-0.013s-1.134-0.013-1.681-0.013h-1.641c-1.958,0-3.622-0.053-4.989-0.159
			c-1.368-0.106-2.483-0.406-3.348-0.9c-0.864-0.494-1.491-1.244-1.879-2.25c-0.388-1.006-0.582-2.409-0.582-4.208
			c0-0.546,0.017-1.284,0.053-2.21c0.035-0.926,0.088-2.033,0.159-3.321c0.018-0.564,0.141-1.112,0.371-1.641
			c0.229-0.529,0.525-0.997,0.887-1.403c0.361-0.406,0.776-0.745,1.244-1.019c0.467-0.273,0.966-0.445,1.496-0.516
			c1.059-0.141,2.117-0.238,3.176-0.291c1.059-0.053,2.118-0.079,3.176-0.079c1.429,0,2.713,0,3.851,0
			c1.138,0,2.148,0.035,3.031,0.105c0.882,0.071,1.641,0.19,2.276,0.357c0.635,0.168,1.165,0.419,1.588,0.754
			c0.405,0.317,0.723,0.653,0.953,1.006c0.229,0.353,0.397,0.732,0.503,1.138s0.172,0.847,0.198,1.323
			c0.027,0.476,0.04,0.988,0.04,1.535h-5.267c-0.036-0.459-0.106-0.816-0.212-1.072c-0.105-0.255-0.295-0.45-0.569-0.582
			c-0.274-0.132-0.653-0.216-1.138-0.251c-0.485-0.035-1.107-0.053-1.866-0.053h-1.35c-0.477,0-0.944-0.004-1.403-0.013
			c-0.459-0.008-0.883-0.013-1.271-0.013c-0.882,0-1.61,0.013-2.184,0.04c-0.574,0.026-1.037,0.163-1.39,0.41
			s-0.6,0.648-0.741,1.204c-0.142,0.556-0.212,1.363-0.212,2.422c0,0.97,0.022,1.782,0.066,2.435
			c0.043,0.653,0.146,1.183,0.304,1.588s0.397,0.71,0.714,0.913c0.318,0.203,0.746,0.349,1.284,0.437
			c0.538,0.088,1.208,0.132,2.012,0.132c0.803,0,1.777,0,2.924,0c0.847,0,1.588,0,2.223,0c0.635,0,1.165-0.062,1.588-0.185
			c0.423-0.124,0.736-0.331,0.939-0.622c0.203-0.291,0.304-0.728,0.304-1.31c0-0.106-0.004-0.186-0.013-0.238
			c-0.009-0.053-0.013-0.132-0.013-0.238H117.433z"/>
		<path fill="#2B3990" stroke="#FFFFFF" stroke-linecap="square" stroke-miterlimit="10" d="M131.937,43.463v-17.68h14.318
			c1.27,0,2.355,0.075,3.256,0.225c0.898,0.15,1.658,0.507,2.275,1.072c0.617,0.565,1.031,1.275,1.244,2.13
			c0.211,0.856,0.316,1.893,0.316,3.11c0,1.306-0.096,2.391-0.291,3.255c-0.193,0.865-0.541,1.558-1.045,2.078
			c-0.502,0.521-1.178,0.891-2.023,1.112c-0.848,0.221-1.924,0.331-3.23,0.331c-0.193,0-0.365-0.004-0.516-0.013
			c-0.15-0.009-0.322-0.013-0.516-0.013h-8.363v4.394H131.937z M137.362,34.782h8.258c0.846,0,1.445-0.163,1.799-0.49
			c0.354-0.326,0.529-0.93,0.529-1.813c0-0.847-0.158-1.459-0.477-1.839c-0.316-0.379-0.936-0.569-1.852-0.569h-8.258V34.782z"/>
	</g>
	<g>
		
			<rect x="156.451" y="173.008" transform="matrix(-0.3119 0.9501 -0.9501 -0.3119 371.5517 80.541)" fill="#231F20" width="0.321" height="3.607"/>
		<path fill="#231F20" d="M151.521,173.51l0.241-0.733l3.778,1.276c0.132,0.043,0.203,0.185,0.16,0.317l-0.084,0.257
			c-0.043,0.132-0.185,0.203-0.317,0.16L151.521,173.51z"/>
		<path fill="#231F20" d="M151.408,178.22L151.408,178.22c-0.293,0-0.531-0.238-0.531-0.531v-5.996c0-0.294,0.238-0.531,0.531-0.531
			l0,0c0.294,0,0.531,0.238,0.531,0.531v5.996C151.939,177.982,151.701,178.22,151.408,178.22z"/>
		<path fill="#231F20" d="M151.636,178.22h-1.499v-1.108h1.803v0.805C151.939,178.085,151.803,178.22,151.636,178.22z"/>
		
			<rect x="122.888" y="151.765" transform="matrix(0.9986 -0.0531 0.0531 0.9986 -8.0475 6.7561)" fill="#231F20" width="0.554" height="6.226"/>
		<path fill="#231F20" d="M124.252,163.882l-1.33,0.071l-0.307-6.877c-0.013-0.239,0.171-0.443,0.409-0.455l0.466-0.025
			c0.239-0.013,0.443,0.171,0.455,0.409L124.252,163.882z"/>
		<path fill="#231F20" d="M114.295,172.691l-1.435-0.659l9.298-20.236c0.182-0.396,0.651-0.57,1.047-0.388l0,0
			c0.396,0.182,0.57,0.651,0.388,1.047L114.295,172.691z"/>
		<path fill="#231F20" d="M127.576,171.641l-6.04-14.454c-0.164-0.393-0.755-0.189-0.643,0.221l4.257,15.561
			C125.151,172.969,127.532,172.392,127.576,171.641z"/>
		<rect x="126.136" y="180.02" fill="#231F20" width="19.77" height="1.516"/>
		<path fill="#231F20" d="M150.136,178.851v-4.338c0-0.971-0.7-1.801-1.657-1.965l-6.642-1.137c-0.36-0.062-0.689-0.242-0.934-0.513
			l-4.8-5.296c-0.301-0.332-0.728-0.522-1.177-0.522h-3.838c-0.666,0-1.262,0.416-1.491,1.042l-2.022,5.519l-1.552,0.505
			c-0.74,0.241-1.241,0.931-1.241,1.709v4.812c0,0.747,0.606,1.353,1.353,1.353h22.832
			C149.613,180.02,150.136,179.497,150.136,178.851z"/>
		<path fill="#231F20" d="M139.137,175.087v-2.999c0-0.588-0.477-1.064-1.064-1.064h-10.272l-0.226,0.617l-1.072,0.349v5.302h9.689
			h0.74C138.15,177.292,139.137,176.305,139.137,175.087z"/>
		<path fill="#231F20" d="M130.61,166.129l-1.291,3.392c-0.163,0.427,0.153,0.885,0.61,0.885h7.427c0.553,0,0.856-0.644,0.503-1.07
			l-2.814-3.392c-0.124-0.15-0.308-0.236-0.503-0.236h-3.323C130.95,165.708,130.707,165.876,130.61,166.129z"/>
		<path fill="#231F20" d="M141.675,180.02h7.292c0.646,0,1.169-0.523,1.169-1.169v-2.522
			C147.645,176.174,141.939,176.236,141.675,180.02z"/>
		<g>
			<path fill="#231F20" d="M141.516,181.536c-0.012-0.068-0.142-2.198,1.027-3.671c1.55-1.952,4.667-2.089,7.59-2.089l0.003,1.3
				c-3.581-0.058-5.705,0.562-6.599,1.625c-0.812,0.966-0.635,2.824-0.633,2.835H141.516z"/>
		</g>
		<path fill="#231F20" d="M124.954,173.091c-0.11,0.234-0.172,0.493-0.172,0.764v4.812c0,0.747,0.606,1.353,1.353,1.353h10.577
			C135.915,171.476,127.859,172.453,124.954,173.091z"/>
		<path fill="#231F20" d="M127.576,171.641l-1.552,0.505c-0.658,0.214-1.126,0.784-1.222,1.454l0,0
			c11.516-2.219,11.911,6.42,11.911,6.42C137.319,170.493,127.576,171.641,127.576,171.641z"/>
		<path fill="#231F20" d="M128.669,174.158c3.717,0,6.73,3.013,6.73,6.73c0,3.717-3.013,6.73-6.73,6.73
			c-3.717,0-6.73-3.013-6.73-6.73C121.94,177.171,124.953,174.158,128.669,174.158L128.669,174.158z"/>
		<path fill="#231F20" d="M128.669,176.682c2.323,0,4.206,1.883,4.206,4.206c0,2.323-1.883,4.206-4.206,4.206
			c-2.323,0-4.206-1.883-4.206-4.206C124.463,178.565,126.346,176.682,128.669,176.682L128.669,176.682z"/>
		<path fill="#231F20" d="M128.669,178.364c1.394,0,2.524,1.13,2.524,2.524c0,1.394-1.13,2.524-2.524,2.524s-2.524-1.13-2.524-2.524
			C126.146,179.494,127.276,178.364,128.669,178.364L128.669,178.364z"/>
		<path fill="#231F20" d="M148.092,177.72c2.733,0,4.949,2.216,4.949,4.949c0,2.733-2.216,4.949-4.949,4.949
			c-2.733,0-4.949-2.216-4.949-4.949C143.143,179.936,145.359,177.72,148.092,177.72L148.092,177.72z"/>
		<path fill="#231F20" d="M148.092,179.576c1.708,0,3.093,1.385,3.093,3.093c0,1.708-1.385,3.093-3.093,3.093
			c-1.708,0-3.093-1.385-3.093-3.093C144.999,180.961,146.383,179.576,148.092,179.576L148.092,179.576z"/>
		<path fill="#231F20" d="M148.092,180.813c1.025,0,1.856,0.831,1.856,1.856c0,1.025-0.831,1.856-1.856,1.856
			c-1.025,0-1.856-0.831-1.856-1.856C146.236,181.644,147.067,180.813,148.092,180.813L148.092,180.813z"/>
		<circle fill="#231F20" cx="121.253" cy="157.579" r="1.072"/>
		<path fill="#231F20" d="M160.391,178.806c0.073-0.692-0.392-1.326-1.076-1.457l-17.426-3.332
			c-0.422-0.052-0.539,0.562-0.126,0.668l17.096,5.23c0.703,0.203,1.429-0.267,1.519-0.993
			C160.382,178.883,160.387,178.845,160.391,178.806z"/>
		<circle fill="#231F20" cx="141.675" cy="174.014" r="1.072"/>
		<path fill="#231F20" d="M158.718,182.176l-1.825-6.579c-0.078-0.279,0.069-0.564,0.327-0.636l0.859-0.238
			c0.335-0.093,0.699,0.016,0.952,0.285l4.272,4.534c0.626,0.664,1.568,0.927,2.448,0.683l0.438-0.121
			c0.516-0.143,1.059,0.194,1.215,0.753l0,0c0.155,0.559-0.137,1.128-0.653,1.271l-5.602,1.554
			C160.116,183.969,159.029,183.294,158.718,182.176L158.718,182.176z"/>
		<path fill="#231F20" d="M113.833,177.833l6.816,0.386c0.29,0.016,0.537-0.187,0.552-0.454l0.05-0.89
			c0.02-0.347-0.164-0.679-0.481-0.87l-5.337-3.212c-0.782-0.471-1.239-1.336-1.187-2.247l0.026-0.453
			c0.03-0.534-0.415-0.994-0.994-1.027l0,0c-0.579-0.033-1.073,0.374-1.104,0.908l-0.329,5.805
			C111.785,176.848,112.675,177.767,113.833,177.833L113.833,177.833z"/>
		<circle fill="#231F20" cx="114.108" cy="173.643" r="1.072"/>
	</g>
	<path fill="#1D1D1B" d="M101.647,153.808c0,0-0.711-0.125-1.045-0.271c-0.334-0.146-1.129-0.021-1.463,0
		c-0.334,0.021-2.09,1.191-2.466,1.609c-0.376,0.418-0.502,0.042-0.961-0.251c-0.46-0.293-1.839-0.334-1.839-0.334v-0.251
		l0.334-1.284c0,0,0.167-0.012-0.502-0.346c-0.669-0.334-3.219-0.92-4.153-0.937c-0.934-0.018-5.128,1.355-5.128,1.355l0.418,1.212
		c-0.293-0.125-0.878,0.46-1.171,0.502c-0.293,0.042-0.711,0.585-0.711,0.585s-0.502,0.209-0.836,0.209
		c-0.334,0,0.042-0.209,0-0.502c-0.042-0.293-0.334-0.418-1.212-1.045c-0.878-0.627-2.132-0.627-2.926-0.502
		c-0.794,0.125-0.794,0.585-0.794,0.585s0.502,1.296,0.627,1.589c0.125,0.293,1.463,0.502,1.505,0.627c0.042,0.125,0,0.836,0,0.961
		c0,0.125,0.669-0.293,0.794-0.334c0.125-0.042,1.672-0.46,2.299-0.627c0.627-0.167,0.711,0.125,1.003,0.209
		c0.293,0.084,0.878,0.418,0.878,0.418s-1.171,0.669-1.589,0.878s-0.46,0.92-0.46,1.714c0,0.794,0.418,2.007,0.418,2.007
		s-0.418,0.543-0.628,0.92c-0.21,0.376,0.043,1.463,0.001,2.592c-0.042,1.129,1.463,4.933,1.463,4.933l-0.961-0.042v0.376
		l0.502,0.167l-0.334,0.251l0.334,0.376l0.418-0.627l0.543,1.045l-0.543,0.084v0.502l0.961,0.125c0,0,0.418,1.463,1.087,2.843
		c0.669,1.38,0.293,2.174,0.376,2.801c0.084,0.627,0.794,0.585,1.003,0.543s0.209-0.376,0.209-0.376l0.293-0.209
		c0,0,0,2.007,0,2.174c0,0.167,0.376,0.042,0.376,0.042s0.042,4.598,0.042,5.56c0,0.962,0.167,0.543,0.46,1.045
		s1.212,0.376,1.839,0.251s1.087-1.212,1.087-1.212l0.042-7.292l0.125-0.65h0.418c0,0,0.334,0.502,0.543,0.627
		s0.585-0.293,0.713-0.418c0.128-0.125,0.165-1.296,0-1.589c-0.165-0.293,0.165-0.92,0.541-1.296s1.254-2.884,1.254-2.884h0.752
		l0.042-0.585h-0.585l0.209-1.087l0.376-0.084l0.418,0.752l0.209-0.209l-0.293-0.585h0.376v-0.293l-0.711-0.209
		c0,0,0.878-3.01,1.129-4.348c0.251-1.338,0.084-3.428-0.042-3.846c-0.125-0.418-0.209-0.46-0.084-0.92
		c0.125-0.46-0.084-2.132-0.167-2.717c-0.084-0.585-0.878-0.836-1.045-0.92c-0.167-0.084,0.251-0.585,0.46-0.752
		c0.209-0.167,0.961,0.084,1.463,0.125c0.502,0.042,2.174,0.627,2.174,0.627s0-0.46,0-0.794s1.129-0.334,1.672-0.669
		C101.731,155.396,101.647,153.808,101.647,153.808z M88.187,164.551c-0.334-0.167-3.01-0.627-3.303-1.087s-1.63-4.306-1.63-4.306
		s1.087,0.962,1.756,1.421c0.669,0.46,2.675,1.463,2.884,1.839c0.209,0.376,0.627,0.878,0.627,1.38S88.521,164.719,88.187,164.551z
		 M95.67,159.159c0,0-0.794,2.884-1.045,3.595s-0.794,1.045-0.794,1.045s-1.923,0.502-2.257,0.627c-0.334,0.125-1.045,0.042-1.171,0
		c-0.125-0.042-0.084-1.129,0-1.505c0.084-0.376,0.92-0.711,1.505-1.047C92.492,161.537,95.67,159.159,95.67,159.159z"/>
</g>
<g id="Layer_2">
</g>
</svg>